<svg width="16" height="16" xmlns="http://www.w3.org/2000/svg" fill="context-fill" fill-opacity="context-fill-opacity">
  <path id="svg_1" class="st0" d="M16,13.5c0,1.381-1.119,2.5-2.5,2.5H4.5c-1.381,0-2.5-1.119-2.5-2.5v-4.1c.317.162.651.294,1,.393v3.707c0,.828.672,1.5,1.5,1.5h9c.828,0,1.5-.672,1.5-1.5V4.5c0-.828-.672-1.5-1.5-1.5h-3.707c-.099-.349-.231-.683-.393-1h4.1c1.381,0,2.5,1.119,2.5,2.5,0,0,0,9,0,9ZM0,4.5C0,2.015,2.015,0,4.5,0s4.5,2.015,4.5,4.5-2.015,4.5-4.5,4.5S0,6.985,0,4.5ZM4,6.5c0,.276.224.5.5.5s.5-.224.5-.5v-1.5s1.5,0,1.5,0c.276,0,.5-.224.5-.5s-.224-.5-.5-.5h-1.5s0-1.5,0-1.5c0-.276-.224-.5-.5-.5s-.5.224-.5.5v1.5s-1.5,0-1.5,0c-.276,0-.5.224-.5.5s.224.5.5.5h1.5s0,1.5,0,1.5Z"/>
</svg>
