<svg width="16" height="16" xmlns="http://www.w3.org/2000/svg" fill="context-fill" fill-opacity="context-fill-opacity">
  <path d="M8,1c-1.2,0-2.2,1-2.2,2.2,0,.2,0,.4,0,.6l-2-.7c-.8-.3-1.7.2-1.9,1-.3.8.1,1.6.8,1.9l2.5,1v2.1l-1.4,4c-.3.8.1,1.7.9,2,.8.3,1.7-.1,2-.9l1.2-3.2,1.2,3.2c.3.8,1.2,1.2,2,.9.8-.3,1.2-1.2.9-2h0l-1.4-4v-2.1l2.5-1c.8-.3,1.2-1.2.9-2s-1.2-1.2-2-.9h0l-1.9.7c.3-1.2-.3-2.4-1.5-2.7-.2,0-.4,0-.6,0ZM8,1.9c.7,0,1.3.6,1.3,1.3,0,.7-.6,1.3-1.3,1.3,0,0,0,0,0,0-.7,0-1.3-.6-1.3-1.3s.6-1.3,1.3-1.3h0ZM3.4,3.8c0,0,.2,0,.2,0l3.6,1.4c.5.2,1.1.2,1.6,0l3.6-1.4c.3-.1.7,0,.9.4.1.3,0,.7-.4.9h0l-2.8,1.1c-.2,0-.3.2-.3.4v2.5c0,0,0,.1,0,.1l1.5,4c.1.3,0,.7-.4.8s-.7,0-.8-.4h0l-1.2-3.3c-.3-.8-1.4-.8-1.6,0l-1.2,3.3c-.1.3-.5.5-.8.4-.3-.1-.5-.5-.4-.8l1.5-4s0,0,0-.1v-2.5c0-.2-.1-.3-.3-.4l-2.8-1.1c-.3-.1-.5-.5-.4-.8,0-.2.3-.4.6-.4h0Z"/>
</svg>