<svg width="16" height="16" xmlns="http://www.w3.org/2000/svg" fill="context-fill" fill-opacity="context-fill-opacity">
  <path d="M3.6,1c-1,0-1.8.8-1.8,1.8v10.5c0,1,.8,1.8,1.8,1.8h3.8c-.3-.3-.7-.5-.9-.9h-2.9c-.5,0-.9-.4-.9-.9h3.2c-.1-.3-.3-.6-.4-.9h-2.8V2.8c0-.5.4-.9.9-.9h7c.5,0,.9.4.9.9v3.7c.3,0,.6.2.9.3V2.8c0-1-.8-1.8-1.8-1.8H3.6ZM4.5,2.8c-.5,0-.9.4-.9.9v.9c0,.5.4.9.9.9h5.2c.5,0,.9-.4.9-.9v-.9c0-.5-.4-.9-.9-.9h-5.2ZM4.5,3.6h5.2v.9h-5.2v-.9Z"/>
  <path d="M14.1,11.1c0,2.2-1.8,3.9-3.9,3.9s-3.9-1.8-3.9-3.9,1.8-3.9,3.9-3.9,3.9,1.8,3.9,3.9ZM10.6,9.3c0-.2-.2-.4-.4-.4s-.4.2-.4.4v1.3h-1.3c-.2,0-.4.2-.4.4s.2.4.4.4h1.3v1.3c0,.2.2.4.4.4s.4-.2.4-.4v-1.3h1.3c.2,0,.4-.2.4-.4s-.2-.4-.4-.4h-1.3v-1.3Z"/>
</svg>