<svg width="16" height="16" xmlns="http://www.w3.org/2000/svg" fill="context-fill" fill-opacity="context-fill-opacity">
  <path d="M3.681,1c-.993,0-1.787.794-1.787,1.787v10.426c0,.993.794,1.787,1.787,1.787h3.773c-.298-.298-.695-.496-.894-.894h-2.879c-.496,0-.894-.397-.894-.894h3.177c-.099-.298-.298-.596-.397-.894h-2.78V2.787c0-.496.397-.894.894-.894h6.95c.496,0,.894.397.894.894v3.674c.298,0,.596.199.894.298v-3.972c0-.993-.794-1.787-1.787-1.787H3.681ZM4.574,2.787c-.496,0-.894.397-.894.894v.894c0,.496.397.894.894.894h5.163c.496,0,.894-.397.894-.894v-.894c0-.496-.397-.894-.894-.894,0,0-5.163,0-5.163,0ZM4.574,3.582h5.163v.894h-5.163v-.894Z"/>
  <path d="M14.106,11.028c0,2.184-1.787,3.872-3.872,3.872s-3.872-1.787-3.872-3.872,1.787-3.872,3.872-3.872,3.872,1.787,3.872,3.872ZM10.631,9.241c0-.199-.199-.397-.397-.397s-.397.199-.397.397v1.291h-1.291c-.199,0-.397.199-.397.397s.199.397.397.397h1.291v1.291c0,.199.199.397.397.397s.397-.199.397-.397v-1.291h1.291c.199,0,.397-.199.397-.397s-.199-.397-.397-.397h-1.291v-1.291Z"/>
</svg>