<svg width="16" height="16" xmlns="http://www.w3.org/2000/svg" fill="context-fill" fill-opacity="context-fill-opacity">
  <path d="M13,7c-.4,0-.8.2-1.2.5l-4.3,4.3c-.2.2-.4.6-.5.9l-.3,1.3c-.1.4.2.8.6,1,.1,0,.3,0,.4,0l1.3-.3c.3,0,.7-.3.9-.5l4.3-4.3c.6-.6.6-1.7,0-2.3-.3-.3-.7-.5-1.2-.5ZM13,7.9c.4,0,.6.2.7.5.1.3.1.6-.2.8l-4.3,4.3c-.1.1-.3.2-.5.3l-1.2.3.3-1.2h0c0-.2.1-.4.3-.5l4.3-4.3c.1-.1.3-.2.5-.2ZM7.4,14.1h0s0,0,0,0h0Z"/>
  <path d="M11.9,1c0,0-.1,0-.2,0l-6.2,1.9c-.4.1-.6.5-.6.8v7.2c-1-.7-2.4-.5-3.1.4-.7,1-.5,2.4.4,3.1,1,.7,2.4.5,3.1-.4.3-.4.4-.8.4-1.3v-6.3l6.2-1.9v1.8c.3-.1.6-.2.9-.2V1.9c0-.5-.4-.9-.9-.9ZM12,1.9v1.7l-6.2,1.9v-1.7l6.2-1.9ZM3.6,11.5c.7,0,1.3.6,1.3,1.3s-.6,1.3-1.3,1.3h0c-.7,0-1.3-.6-1.3-1.3s.6-1.3,1.3-1.3Z"/>
</svg>