<svg width="16" height="16" xmlns="http://www.w3.org/2000/svg" fill="context-fill" fill-opacity="context-fill-opacity">
  <path d="M12.8,1c0,0-.1,0-.2,0l-6.2,1.9c-.4.1-.6.5-.6.8v7.2c-1-.7-2.4-.5-3.1.4-.7,1-.5,2.4.4,3.1,1,.7,2.4.5,3.1-.4.3-.4.4-.8.4-1.3v-6.3l6.2-1.9v4.7c-1-.7-2.4-.5-3.1.4s-.5,2.4.4,3.1,2.4.5,3.1-.4c.3-.4.4-.8.4-1.3V1.9c0-.5-.4-.9-.9-.9ZM12.9,1.9v1.7l-6.2,1.9v-1.7l6.2-1.9ZM11.5,9.7c.7,0,1.3.6,1.3,1.3s-.6,1.3-1.3,1.3-1.3-.6-1.3-1.3.6-1.3,1.3-1.3ZM4.5,11.5c.7,0,1.3.6,1.3,1.3s-.6,1.3-1.3,1.3-1.3-.6-1.3-1.3.6-1.3,1.3-1.3Z"/>
</svg>