<svg width="16" height="16" xmlns="http://www.w3.org/2000/svg" fill="context-fill" fill-opacity="context-fill-opacity">
  <path d="M2.8,1c-1,0-1.8.8-1.8,1.8v1.3c0,.2.2.4.4.4s.4-.2.4-.4v-1.3c0-.5.4-.9.9-.9h1.3c.2,0,.4-.2.4-.4s-.2-.4-.4-.4h-1.3ZM11.9,1c-.2,0-.4.2-.4.4s.2.4.4.4h1.3c.5,0,.9.4.9.9v1.3c0,.2.2.4.4.4s.4-.2.4-.4v-1.3c0-1-.8-1.8-1.8-1.8h-1.3ZM4.9,2.8c-1.2,0-2.2,1-2.2,2.2v6.1c0,1.2,1,2.2,2.2,2.2h6.1c1.2,0,2.2-1,2.2-2.2v-6.1c0-1.2-1-2.2-2.2-2.2h-6.1ZM4.9,3.6h2.2v1.3c0,.7.6,1.3,1.3,1.3h3.9v4.8c0,.7-.6,1.3-1.3,1.3h-6.1c-.7,0-1.3-.6-1.3-1.3v-6.1c0-.7.6-1.3,1.3-1.3ZM8,3.6h3.1c.7,0,1.3.6,1.3,1.3v.4h-3.9c-.2,0-.4-.2-.4-.4,0,0,0,0,0,0v-1.3ZM1.4,11.5c-.2,0-.4.2-.4.4v1.3c0,1,.8,1.8,1.8,1.8h1.3c.2,0,.4-.2.4-.4s-.2-.4-.4-.4h-1.3c-.5,0-.9-.4-.9-.9v-1.3c0-.2-.2-.4-.4-.4ZM14.6,11.5c-.2,0-.4.2-.4.4v1.3c0,.5-.4.9-.9.9h-1.3c-.2,0-.4.2-.4.4s.2.4.4.4h1.3c1,0,1.8-.8,1.8-1.8v-1.3c0-.2-.2-.4-.4-.4Z"/>
</svg>