<svg width="16" height="16" xmlns="http://www.w3.org/2000/svg" fill="context-fill" fill-opacity="context-fill-opacity">
  <path d="M2.5626.75c-.9967,0-1.8126.816-1.8126,1.8127v1.3593c0,.2504.203.4534.4534.4534s.4534-.203.4534-.4534v-1.3593c0-.5056.4012-.9059.9058-.9059h1.3592c.2504,0,.4534-.203.4534-.4534s-.203-.4534-.4534-.4534h-1.3602.001ZM12.0782.75c-.2504,0-.4534.203-.4534.4534s.203.4534.4534.4534h1.3592c.5056,0,.9058.4012.9058.9059v1.3593c0,.2504.203.4534.4534.4534s.4534-.203.4534-.4534v-1.3593c0-.9968-.8159-1.8127-1.8126-1.8127h-1.3602.001ZM4.8286,2.5627c-1.25.0039-2.2622,1.0161-2.266,2.2662v6.3441c0,1.2462,1.0189,2.2662,2.266,2.2662h6.3437c1.2461,0,2.266-1.019,2.266-2.2662v-6.3441c0-1.2462-1.0189-2.2662-2.266-2.2662,0,0-6.3437,0-6.3437,0ZM4.8286,3.4686h2.266v1.3593c0,.7454.6129,1.3593,1.3592,1.3593h4.0786v4.9838c0,.756-.6042,1.3593-1.3592,1.3593h-6.3437c-.756,0-1.3592-.6042-1.3592-1.3593v-6.3441c0-.756.6042-1.3593,1.3592-1.3593h-.001v.001ZM7.9995,3.4686h3.1709c.756,0,1.3592.6042,1.3592,1.3593v.4534h-4.0786c-.2465.0029-.4495-.1934-.4534-.4399v-1.3709h.0019v-.0019ZM1.2034,11.6245c-.2504,0-.4534.203-.4534.4534v1.3593c0,.9968.8159,1.8127,1.8126,1.8127h1.3592c.2504,0,.4534-.203.4534-.4534s-.203-.4534-.4534-.4534h-1.3592c-.5056,0-.9058-.4012-.9058-.9059v-1.3593c0-.2504-.203-.4534-.4534-.4534h.001-.001ZM14.7966,11.6245c-.2504,0-.4534.203-.4534.4534v1.3593c0,.5056-.4012.9059-.9058.9059h-1.3592c-.2504,0-.4534.203-.4534.4534s.203.4534.4534.4534h1.3592c.9967,0,1.8126-.816,1.8126-1.8127v-1.3593c0-.2504-.203-.4534-.4534-.4534h.001-.001Z"/>
</svg>