<svg width="16" height="16" xmlns="http://www.w3.org/2000/svg" fill="context-fill" fill-opacity="context-fill-opacity">
  <path d="M2.375.501c-1.031,0-1.875.844-1.875,1.875v1.406c0,.259.21.469.469.469s.469-.21.469-.469v-1.406c0-.523.415-.937.937-.937h1.406c.259,0,.469-.21.469-.469s-.21-.469-.469-.469h-1.407ZM12.218.501c-.259,0-.469.21-.469.469s.21.469.469.469h1.406c.523,0,.937.415.937.937v1.406c0,.259.21.469.469.469s.469-.21.469-.469v-1.406c0-1.031-.844-1.875-1.875-1.875h-1.407ZM4.719,2.376c-1.293.004-2.34,1.051-2.344,2.344v6.562c0,1.289,1.054,2.344,2.344,2.344h6.562c1.289,0,2.344-1.054,2.344-2.344v-6.562c0-1.289-1.054-2.344-2.344-2.344,0,0-6.562,0-6.562,0ZM4.719,3.313h2.344v1.406c0,.771.634,1.406,1.406,1.406h4.219v5.155c0,.782-.625,1.406-1.406,1.406h-6.562c-.782,0-1.406-.625-1.406-1.406v-6.562c0-.782.625-1.406,1.406-1.406h-.001ZM7.999,3.313h3.28c.782,0,1.406.625,1.406,1.406v.469h-4.219c-.255.003-.465-.2-.469-.455v-1.418h.002ZM.969,11.749c-.259,0-.469.21-.469.469v1.406c0,1.031.844,1.875,1.875,1.875h1.406c.259,0,.469-.21.469-.469s-.21-.469-.469-.469h-1.406c-.523,0-.937-.415-.937-.937v-1.406c0-.259-.21-.469-.469-.469h.001ZM15.03,11.749c-.259,0-.469.21-.469.469v1.406c0,.523-.415.937-.937.937h-1.406c-.259,0-.469.21-.469.469s.21.469.469.469h1.406c1.031,0,1.875-.844,1.875-1.875v-1.406c0-.259-.21-.469-.469-.469h.001Z"/>
</svg>