<svg width="16" height="16" xmlns="http://www.w3.org/2000/svg" fill="context-fill" fill-opacity="context-fill-opacity">
  <defs>
    <style>
      .st0 {
        fill: none;
      }

      .st1 {
        clip-path: url(#clippath);
      }
    </style>
    <clipPath id="clippath">
      <path class="st0" d="M2.469.018l13.031,13.032V.018H2.469ZM.5.674v14.344h14.343L.5.674Z"/>
    </clipPath>
  </defs>
  <g class="st1">
    <path d="M8,.018C4.898.018,2.375,2.541,2.375,5.643v3.188l-.87,2.09c-.248.597.211,1.285.857,1.285h3.295c0,1.289,1.054,2.344,2.344,2.344s2.344-1.055,2.344-2.344h3.295c.647,0,1.107-.689.857-1.285l-.869-2.09v-3.188C13.626,2.541,11.102.018,8.001.018h-.001ZM8,.956c2.594,0,4.687,2.093,4.687,4.687v3.281c0,.062.014.122.038.179l.9,2.165H2.375l.9-2.165c.024-.056.037-.118.038-.179v-3.281C3.313,3.049,5.406.956,8,.956ZM6.594,12.206h2.813c0,.782-.625,1.406-1.406,1.406s-1.406-.625-1.406-1.406h-.001Z"/>
  </g>
  <path d="M.969.018c-.124,0-.244.049-.332.137-.183.183-.183.48,0,.662l14.062,14.063c.183.183.48.183.662,0s.183-.48,0-.662L1.3.155c-.088-.088-.208-.137-.332-.137h.001Z"/>
</svg>