<svg width="16" height="16" xmlns="http://www.w3.org/2000/svg" fill="context-fill" fill-opacity="context-fill-opacity">
  <path d="M8,.5c-.3,0-.5.2-.5.5v9.8l-3.6-3.6c-.2-.2-.5-.2-.7,0-.2.2-.2.5,0,.7,0,0,0,0,0,0l4.5,4.5c.2.2.5.2.7,0l4.5-4.5c.2-.2.2-.5,0-.7-.2-.2-.5-.2-.7,0l-3.6,3.6V1c0-.3-.2-.5-.5-.5h0Z"/>
  <path d="M1.5,11.5c-.3,0-.5.2-.5.5v1c0,1.4,1.1,2.5,2.5,2.5h9c1.4,0,2.5-1.1,2.5-2.5v-1c0-.3-.2-.5-.5-.5s-.5.2-.5.5v1c0,.8-.7,1.5-1.5,1.5H3.5c-.8,0-1.5-.7-1.5-1.5v-1c0-.3-.2-.5-.5-.5Z"/>
</svg>
