<svg width="16" height="16" xmlns="http://www.w3.org/2000/svg" fill="context-fill" fill-opacity="context-fill-opacity">
  <path d="M5.8,1c-.6,0-1.1.4-1.2.9h-1.4c-.7,0-1.3.6-1.3,1.3v10.5c0,.7.6,1.3,1.3,1.3h2.6c.2,0,.4-.2.4-.4s-.2-.4-.4-.4h-2.6c-.2,0-.4-.2-.4-.4V3.2c0-.2.2-.4.4-.4h1.4c.2.5.7.9,1.2.9h2.6c.6,0,1.1-.4,1.2-.9h1.4c.2,0,.4.2.4.4v.9c0,.2.2.4.4.4s.4-.2.4-.4v-.9c0-.7-.6-1.3-1.3-1.3h-1.4c-.2-.5-.7-.9-1.2-.9h-2.6ZM5.8,1.9h2.6c.2,0,.4.2.4.4s-.2.4-.4.4h-2.6c-.2,0-.4-.2-.4-.4s.2-.4.4-.4ZM8.4,5.4c-.7,0-1.3.6-1.3,1.3v7c0,.7.6,1.3,1.3,1.3h4.4c.7,0,1.3-.6,1.3-1.3h0v-7c0-.7-.6-1.3-1.3-1.3h-4.4ZM8.4,6.2h4.4c.2,0,.4.2.4.4v7c0,.2-.2.4-.4.4h-4.4c-.2,0-.4-.2-.4-.4v-7c0-.2.2-.4.4-.4Z"/>
</svg>