<svg width="16" height="16" xmlns="http://www.w3.org/2000/svg" fill="context-fill" fill-opacity="context-fill-opacity">
  <path d="M8,1c-1.2,0-2.3,1-2.3,2.3H1.7c-.2,0-.5.2-.5.5h0c0,.3.2.5.4.5h.5l1.2,9.2c.1.9.9,1.6,1.8,1.6h5.7c.9,0,1.7-.7,1.8-1.6l1.2-9.2h.5c.2,0,.5-.2.5-.5s-.2-.5-.5-.5h-4.1c0-1.2-1-2.3-2.3-2.3ZM8,1.9c.7,0,1.4.6,1.4,1.4h-2.7c0-.7.6-1.4,1.4-1.4ZM3.1,4.2h9.8l-1.2,9.1c0,.5-.4.8-.9.8h-5.7c-.5,0-.8-.3-.9-.8l-1.2-9.1ZM6.6,6.4c-.2,0-.5.2-.5.4v4.6h0c0,.3.2.4.4.4s.5-.2.5-.4v-4.6h0c0-.3-.2-.4-.4-.4ZM9.4,6.4c-.2,0-.5.2-.5.4v4.6h0c0,.3.2.4.4.4s.5-.2.5-.4v-4.6h0c0-.3-.2-.4-.4-.4Z"/>
</svg>