<svg width="16" height="16" xmlns="http://www.w3.org/2000/svg" fill="context-fill" fill-opacity="context-fill-opacity">
  <path d="M10.8,1.7c1-1,2.5-.9,3.4,0,.9.9,1,2.4.1,3.3h-.1c0,.1-8.4,8.5-8.4,8.5-.2.2-.4.3-.6.4h-.1s-3.5,1-3.5,1c-.2,0-.5,0-.5-.3,0,0,0-.1,0-.2h0c0,0,1-3.6,1-3.6,0-.2.2-.5.3-.7h.1c0-.1,8.4-8.5,8.4-8.5ZM10.1,3.7l-7,7c0,0-.1.2-.2.3h0c0,.1-.8,2.9-.8,2.9l2.8-.8c0,0,.1,0,.2,0h0c0,0,0-.1,0-.1l7-7-2.2-2.2ZM13.7,2.3c-.6-.6-1.5-.6-2.1,0h-.1c0,0-.8.8-.8.8l2.2,2.2.8-.8c.6-.6.6-1.5,0-2.1h0Z"/>
</svg>