<svg width="16" height="16" xmlns="http://www.w3.org/2000/svg" fill="context-fill" fill-opacity="context-fill-opacity">
  <path d="M4.1,1c-.2,0-.4.2-.4.4,0,0,0,.2,0,.2l3.8,5.8-1.7,2.6c-1.3-.7-2.9-.3-3.6,1-.7,1.3-.3,2.9,1,3.6,1.3.7,2.9.3,3.6-1,.5-1,.4-2.2-.3-3l1.5-2.3,1.5,2.3c-1,1.1-.8,2.7.2,3.7,1.1,1,2.7.8,3.7-.2,1-1.1.8-2.7-.2-3.7-.8-.7-2.1-.9-3-.3L4.4,1.2c0-.1-.2-.2-.4-.2h0ZM11.9,1c-.1,0-.3,0-.4.2l-3,4.7.5.8,3.3-5c.1-.2,0-.5-.1-.6,0,0-.2,0-.2,0h0ZM4.5,10.6c1,0,1.7.8,1.7,1.7s-.8,1.7-1.7,1.7-1.7-.8-1.7-1.7.8-1.7,1.7-1.7ZM11.5,10.6c1,0,1.7.8,1.7,1.7s-.8,1.7-1.7,1.7-1.7-.8-1.7-1.7.8-1.7,1.7-1.7Z"/>
</svg>