<svg width="16" height="16" xmlns="http://www.w3.org/2000/svg" fill="context-fill" fill-opacity="context-fill-opacity">
  <path d="M6.2,1c-1,0-1.8.8-1.8,1.8v.4c0,.2.2.4.4.4s.4-.2.4-.4v-.4c0-.5.4-.9.9-.9h.4c.2,0,.4-.2.4-.4s-.2-.4-.4-.4h-.4ZM8.4,1c-.2,0-.4.2-.4.4s.2.4.4.4h2.6c.2,0,.4-.2.4-.4s-.2-.4-.4-.4h-2.6ZM12.8,1c-.2,0-.4.2-.4.4s.2.4.4.4h.4c.5,0,.9.4.9.9v.4c0,.2.2.4.4.4s.4-.2.4-.4v-.4c0-1-.8-1.8-1.8-1.8h-.4ZM2.8,4.5c-1,0-1.8.8-1.8,1.8v5.7c0,1.7,1.4,3.1,3.1,3.1h5.7c1,0,1.8-.8,1.8-1.8v-.9h-.9v.9c0,.5-.4.9-.9.9h-5.7c-1.2,0-2.2-1-2.2-2.2v-5.7c0-.5.4-.9.9-.9h.9v-.9h-.9ZM4.9,4.5c-.2,0-.4.2-.4.4v2.6c0,.2.2.4.4.4s.4-.2.4-.4v-2.6c0-.2-.2-.4-.4-.4ZM14.6,4.5c-.2,0-.4.2-.4.4v2.6c0,.2.2.4.4.4s.4-.2.4-.4v-2.6c0-.2-.2-.4-.4-.4ZM4.9,8.9c-.2,0-.4.2-.4.4v.4c0,1,.8,1.8,1.8,1.8h.4c.2,0,.4-.2.4-.4s-.2-.4-.4-.4h-.4c-.5,0-.9-.4-.9-.9v-.4c0-.2-.2-.4-.4-.4ZM14.6,8.9c-.2,0-.4.2-.4.4v.4c0,.5-.4.9-.9.9h-.4c-.2,0-.4.2-.4.4s.2.4.4.4h.4c1,0,1.8-.8,1.8-1.8v-.4c0-.2-.2-.4-.4-.4ZM8.4,10.6c-.2,0-.4.2-.4.4s.2.4.4.4h2.6c.2,0,.4-.2.4-.4s-.2-.4-.4-.4h-2.6Z"/>
</svg>