<svg viewBox="0 0 16 16" xmlns="http://www.w3.org/2000/svg" fill="context-fill" fill-opacity="context-fill-opacity">
  <path d="M8,.8c-1.3,0-2.3,1-2.3,2.3H1.5c-.3,0-.5.2-.5.5h0c0,.3.2.5.5.5h.5l1.2,9.5c.1.9.9,1.7,1.9,1.7h5.9c.9,0,1.7-.7,1.9-1.7l1.2-9.5h.5c.3,0,.5-.2.5-.5s-.2-.5-.5-.5h-4.2c0-1.3-1-2.3-2.3-2.3ZM8,1.7c.8,0,1.4.6,1.4,1.4h-2.8c0-.8.6-1.4,1.4-1.4ZM2.9,4h10.2l-1.2,9.4c0,.5-.5.8-.9.8h-5.9c-.5,0-.9-.4-.9-.8l-1.2-9.4ZM6.6,6.4c-.3,0-.5.2-.5.4v4.8h0c0,.3.2.4.5.4s.5-.2.5-.4v-4.8h0c0-.3-.2-.4-.5-.4ZM9.4,6.4c-.3,0-.5.2-.5.4v4.8h0c0,.3.2.4.5.4s.5-.2.5-.4v-4.8h0c0-.3-.2-.4-.5-.4Z"/>
</svg>
