<svg width="16" height="16" xmlns="http://www.w3.org/2000/svg" fill="context-fill" fill-opacity="context-fill-opacity">
  <path d="M1.7,1.1c-.2-.2-.4-.2-.6,0-.2.2-.2.4,0,.6l1.1,1.1s0,0-.1.1c-1.5,1.5-1.5,3.9,0,5.4l5.5,5.5c.2.2.6.2.8,0l2.4-2.5,3.4,3.4c.2.2.4.2.6,0,.2-.2.2-.4,0-.6C14.9,14.3,1.7,1.1,1.7,1.1ZM10.3,10.9l-2.2,2.3L2.7,7.8c-1.1-1.2-1.2-3,0-4.2,0,0,0,0,.1-.1l7.4,7.4ZM13.3,7.8l-1.8,1.8.6.6,1.8-1.8c1.5-1.5,1.5-3.9,0-5.4-1.5-1.5-3.8-1.5-5.3-.1,0,0,0,0,0,0l-.5.5-.5-.5s0,0,0,0c-1-.9-2.3-1.2-3.5-.9l.8.8c.8,0,1.6.2,2.2.9l.8.8c.2.2.5.2.6,0l.8-.8c1.1-1.1,3-1.1,4.1,0,1.1,1.2,1.1,3,0,4.2,0,0,0,0,0,0Z"/>
</svg>