<svg width="16" height="16" xmlns="http://www.w3.org/2000/svg" fill="context-fill" fill-opacity="context-fill-opacity">
  <path d="M3.164,1.25c-1.061,0-1.931.869-1.931,1.931v3.065c.302-.106.626-.168.966-.168v-2.897c0-.544.422-.966.966-.966h2.897v1.448c0,.795.654,1.448,1.448,1.448h6.276v7.724c0,.544-.422.966-.966.966h-2.897c0,.34-.062.663-.168.966h3.065c1.062,0,1.931-.869,1.931-1.931V3.181c0-1.061-.869-1.931-1.931-1.931H3.164ZM7.026,2.216h5.793c.544,0,.966.422.966.966v.966h-6.276c-.263.004-.479-.206-.483-.469v-1.462h0Z"/>
  <g fill="none" stroke="context-fill" stroke-opacity="context-fill-opacity" stroke-width="1.001">
    <rect class="st0" x=".75" y="7.526" width="7.723" height="7.724" rx="1.5" ry="1.5"/>
    <path class="st0" d="M1.233,14.767l2.697-2.697c.377-.377.988-.377,1.365,0l2.697,2.697"/>
  </g>
  <circle cx="6.302" cy="9.698" r=".724"/>
</svg>