<svg width="16" height="16" xmlns="http://www.w3.org/2000/svg" fill="context-fill" fill-opacity="context-fill-opacity">
  <defs>
    <style>
      .st0 {
        fill: #212121;
      }
    </style>
  </defs>
  <path class="st0" d="M9.808,1.046c.216.091.356.303.356.537v12.833c0,.235-.141.447-.358.538-.217.091-.467.043-.634-.122l-3.413-3.354h-2.01c-.966,0-1.75-.784-1.75-1.75v-3.487c0-.966.783-1.75,1.75-1.75h2.011l3.414-3.326c.168-.164.418-.211.634-.12ZM8.998,2.966l-2.593,2.527c-.109.106-.255.165-.407.165h-2.248c-.322,0-.583.261-.583.583v3.487c0,.322.261.583.583.583h2.248c.153,0,.3.06.409.167l2.592,2.547V2.966ZM11.461,4.72c.2-.252.567-.294.819-.093h.001s.001.002.001.002l.002.002.006.005.017.015c.014.012.032.027.053.047.043.039.1.094.166.166.132.143.303.352.472.63.34.559.669,1.392.669,2.505s-.329,1.946-.669,2.507c-.169.279-.34.488-.472.632-.066.072-.123.127-.166.166-.023.021-.046.042-.07.062l-.01.008h0s-.521.283-.82-.091c-.2-.25-.161-.615.088-.817l.002-.002h0s.002,0,.002,0h-.001s.011-.008.021-.018c.021-.02.056-.053.099-.1.087-.094.208-.242.331-.445.244-.403.5-1.029.5-1.902s-.255-1.497-.499-1.899c-.123-.202-.244-.35-.331-.443-.043-.047-.078-.08-.099-.099-.011-.01-.018-.016-.021-.019h.001c-.252-.2-.293-.566-.092-.818ZM13.445,2.294c-.252-.201-.619-.159-.819.093-.2.252-.158.619.093.82l.013.011c.013.011.033.028.06.053.054.049.136.125.235.228.198.206.466.517.735.926.537.818,1.072,2.022,1.072,3.58s-.535,2.76-1.071,3.575c-.269.408-.537.718-.735.923-.099.102-.18.178-.234.227-.027.024-.048.042-.06.053l-.013.011h-.001c-.251.201-.293.567-.094.819.2.252.568.294.82.094l.038-.032c.022-.018.051-.044.088-.077.073-.066.175-.161.295-.285.24-.248.555-.613.87-1.092.631-.958,1.263-2.379,1.263-4.217s-.633-3.26-1.263-4.221c-.315-.48-.631-.846-.87-1.095-.12-.125-.221-.22-.294-.286-.037-.033-.066-.059-.088-.077l-.026-.022-.008-.007-.003-.002-.002-.002ZM11.552,5.538h-.002s.002,0,.002,0Z"/>
</svg>