<svg width="16" height="16" xmlns="http://www.w3.org/2000/svg" fill="context-fill" fill-opacity="context-fill-opacity">
  <defs>
    <style>
      .st0 {
        fill: none;
      }

      .st1 {
        clip-path: url(#clippath);
      }
    </style>
    <clipPath id="clippath">
      <path class="st0" d="M3.588,1.001l12.162,12.161V1.001H3.588ZM1.75,1.613v13.387h13.387L1.75,1.613Z"/>
    </clipPath>
  </defs>
  <g class="st1">
    <path d="M9.494,1.009c-.174.027-.336.106-.464.227l-3.39,3.146c-.081.075-.187.117-.297.116h-2.28c-.725,0-1.312.588-1.312,1.312h0v4.378c0,.725.588,1.312,1.312,1.312h2.281c.11,0,.217.042.297.117l3.388,3.146c.56.52,1.47.123,1.47-.64V1.877c0-.573-.513-.94-1.005-.868ZM9.625,1.877v12.246l-3.389-3.146c-.243-.225-.561-.35-.892-.35h-2.281c-.242,0-.437-.196-.437-.437v-4.378c0-.242.196-.437.437-.437h2.281c.331,0,.649-.125.892-.351l3.389-3.146h0ZM13.667,3.185c-.242-.012-.448.175-.46.418-.005.114.034.226.11.312,2.079,2.327,2.079,5.843,0,8.17-.161.181-.145.458.035.619.179.161.455.145.616-.035,2.376-2.66,2.376-6.679,0-9.339-.077-.087-.185-.139-.301-.145ZM12.486,5.377c-.24.03-.41.249-.38.488.007.058.026.114.055.164.704,1.219.704,2.721,0,3.94-.116.213-.037.479.175.595.205.112.463.043.584-.157.859-1.49.858-3.325-.002-4.814-.087-.152-.258-.238-.432-.216h0Z"/>
  </g>
  <path d="M2.188,1.001c-.116,0-.227.046-.31.128-.171.171-.171.448,0,.618l13.126,13.125c.171.171.448.171.618,0s.171-.448,0-.618L2.497,1.128c-.082-.082-.194-.128-.31-.128h0Z"/>
</svg>