<svg width="16" height="16" xmlns="http://www.w3.org/2000/svg" fill="context-fill" fill-opacity="context-fill-opacity">
  <defs>
    <style>
      .st0 {
        fill: #212121;
      }
    </style>
  </defs>
  <path class="st0" d="M10.164,9.991l4.837,4.838c.228.228.597.228.825,0,.228-.228.228-.597,0-.825L2.996,1.171c-.228-.228-.597-.228-.825,0-.228.228-.228.597,0,.825l2.495,2.496h-.917c-.966,0-1.75.783-1.75,1.75v3.487c0,.966.783,1.75,1.75,1.75h2.01l3.413,3.354c.168.165.418.213.634.122.217-.091.358-.303.358-.538v-4.426ZM8.998,8.824v4.202l-2.592-2.547c-.109-.107-.256-.167-.409-.167h-2.248c-.322,0-.583-.261-.583-.583v-3.487c0-.322.261-.583.583-.583h2.083l3.165,3.166ZM8.998,5.525v-2.559l-1.296,1.263-.825-.825,2.297-2.238c.168-.164.418-.211.634-.12.216.091.356.303.356.537v5.108l-1.166-1.167ZM13.325,9.852l-.927-.927c.064-.271.105-.579.105-.927,0-.872-.255-1.497-.499-1.899-.123-.202-.244-.35-.331-.443-.043-.047-.078-.08-.099-.099-.011-.01-.018-.016-.021-.019h.001c-.252-.2-.293-.566-.092-.818.2-.252.567-.294.819-.093h.001s.001.002.001.002l.003.002.006.005.017.015c.014.012.032.027.053.047.043.039.1.094.166.166.132.143.303.352.472.63.34.559.669,1.392.669,2.505,0,.742-.146,1.359-.344,1.854ZM15.094,11.622l-.868-.869c.344-.733.608-1.653.608-2.749,0-1.558-.535-2.762-1.072-3.58-.269-.409-.537-.72-.735-.926-.099-.103-.18-.179-.235-.228-.027-.024-.048-.042-.06-.053l-.013-.011c-.252-.201-.294-.568-.093-.82.201-.252.567-.294.819-.093l.002.002.003.002.008.007.026.022c.022.018.051.044.088.077.073.066.175.161.295.286.239.249.555.615.87,1.095.63.96,1.263,2.384,1.263,4.221,0,1.486-.414,2.7-.906,3.617Z"/>
</svg>