<svg width="16" height="16" xmlns="http://www.w3.org/2000/svg" fill="context-fill" fill-opacity="context-fill-opacity">
  <path d="M5.4,1c-.6,0-1.1.4-1.2.9h-1.4c-.7,0-1.3.6-1.3,1.3v10.5c0,.7.6,1.3,1.3,1.3h5.1c-.4-.2-.7-.5-1-.9H2.8c-.2,0-.4-.2-.4-.4V3.2c0-.2.2-.4.4-.4h1.4c.2.5.7.9,1.2.9h2.6c.6,0,1.1-.4,1.2-.9h1.4c.2,0,.4.2.4.4v3.1c.3,0,.6,0,.9.2v-3.2c0-.7-.6-1.3-1.3-1.3h-1.4c-.2-.5-.7-.9-1.2-.9h-2.6ZM5.4,1.9h2.6c.2,0,.4.2.4.4s-.2.4-.4.4h-2.6c-.2,0-.4-.2-.4-.4s.2-.4.4-.4ZM10.6,7.1c-2.2,0-3.9,1.8-3.9,3.9s1.8,3.9,3.9,3.9,3.9-1.8,3.9-3.9-1.8-3.9-3.9-3.9ZM10.6,8.9c.1,0,.2,0,.3.1l1.8,1.8c0,0,.1.2.1.3h0c0,.1,0,.2-.1.3h0s-1.8,1.8-1.8,1.8c-.2.2-.4.2-.6,0s-.2-.4,0-.6l1-1h-2.4c-.2,0-.4-.2-.4-.4s.2-.4.4-.4h2.4l-1-1c-.2-.2-.2-.4,0-.6,0,0,.2-.1.3-.1Z"/>
</svg>