<svg width="16" height="16" xmlns="http://www.w3.org/2000/svg" fill="context-fill" fill-opacity="context-fill-opacity">
  <path d="M10.33,1.437c-.189.006-.356.124-.424.3l-4.688,12.188c-.093.242.027.513.269.607.242.093.513-.027.607-.269h0L10.782,2.075c.093-.241-.027-.513-.268-.606-.058-.023-.121-.033-.184-.031ZM3.744,4.252c-.124.009-.238.067-.319.161L.613,7.694c-.15.176-.15.435,0,.611l2.813,3.281c.172.193.469.21.662.038.188-.168.21-.455.049-.649l-2.55-2.976,2.55-2.976c.168-.197.146-.492-.051-.661-.094-.081-.216-.121-.34-.112h0ZM12.255,4.72c-.258-.02-.484.173-.503.431-.01.124.031.247.112.341l2.552,2.976-2.55,2.976c-.177.189-.168.485.021.663.189.177.485.168.663-.021.009-.01.018-.02.026-.031l2.813-3.281c.15-.176.15-.435,0-.611l-2.813-3.281c-.08-.094-.195-.152-.319-.161h0Z"/>
</svg>