<svg width="16" height="16" xmlns="http://www.w3.org/2000/svg" fill="context-fill" fill-opacity="context-fill-opacity">
    <path id="svg_1" d="M10.8,1.6c-1-1-2.8-.8-3.5.6l-1.7,3.4c0,.2-.3.3-.5.4l-2.7.9c-.8.3-1,1.2-.4,1.8l2.2,2.2-3.3,3.3v.8h.8l3.3-3.3,2.2,2.2c.6.6,1.5.3,1.8-.4l.9-2.7c0-.2.2-.4.4-.5l3.4-1.7c1.3-.7,1.6-2.4.6-3.5l-3.6-3.6s0,0,0,0ZM8.3,2.7c.3-.7,1.2-.8,1.7-.3l3.6,3.6c.5.5.4,1.4-.3,1.7l-3.4,1.7c-.4.2-.8.6-.9,1.1l-.9,2.7L2.8,7.9l2.7-.9c.5-.2.9-.5,1.1-.9,0,0,1.7-3.4,1.7-3.4Z"/>
  </g>
  <path id="svg_11" data-name="svg_1" d="M9.7,11.5l-.7,2c-.3.8-1.2,1-1.8.4l-2.2-2.2-3.3,3.3h-.8v-.8l3.3-3.3-2.2-2.2c-.6-.6-.3-1.5.4-1.8l2-.7L.1,1.9c-.2-.2-.2-.5,0-.8.2-.2.5-.2.8,0l13.9,13.9c.2.2.2.5,0,.8s-.5.2-.8,0l-4.3-4.3s0,0,0,0ZM8.9,10.7l-3.5-3.5-2.5.8,5.2,5.2.8-2.5h0ZM13.3,7.7l-3.2,1.6.8.8,2.8-1.4c1.3-.7,1.6-2.4.6-3.4l-3.5-3.5c-1-1-2.8-.8-3.4.6l-1.4,2.8.8.8,1.6-3.2c.3-.7,1.2-.8,1.7-.3l3.5,3.5c.5.5.4,1.4-.3,1.7h0Z"/>
</svg>