<svg width="16" height="16" xmlns="http://www.w3.org/2000/svg" fill="context-fill" fill-opacity="context-fill-opacity">

  <path d="M3.164,1.25c-1.061,0-1.931.869-1.931,1.931v3.065c.302-.106.626-.168.966-.168v-2.897c0-.544.422-.966.966-.966h2.897v1.448c0,.795.654,1.448,1.448,1.448h6.276v7.724c0,.544-.422.966-.966.966h-2.897c0,.34-.062.663-.168.966h3.065c1.062,0,1.931-.869,1.931-1.931V3.181c0-1.061-.869-1.931-1.931-1.931H3.164ZM7.026,2.216h5.793c.544,0,.966.422.966.966v.966h-6.276c-.263.004-.479-.206-.483-.469,0-.005,0-.009,0-.014v-1.448Z"/>
  <rect class="st0" x=".75" y="7.526" width="7.724" height="7.724" rx="1.5" ry="1.5" fill="none" stroke="context-fill" stroke-opacity="context-fill-opacity" stroke-width="1.001"/>
  <path d="M3.164,9.811v3.152c0,.128.104.232.232.232.043,0,.084-.012.121-.034l2.358-1.441c.184-.113.241-.354.128-.538-.032-.052-.076-.096-.128-.128l-2.358-1.442c-.109-.067-.252-.032-.319.077-.022.037-.034.079-.034.122Z"/>
</svg>