<svg width="16" height="16" xmlns="http://www.w3.org/2000/svg" fill="context-fill" fill-opacity="context-fill-opacity">
  <path d="M3.4919,1.75c-.9851,0-1.7929.8069-1.7929,1.7931v2.8461c.2804-.0984.5812-.156.8969-.156v-2.6901c0-.5051.3918-.897.8969-.897h2.6899v1.3446c0,.7382.6072,1.3446,1.3445,1.3446h5.8273v7.1723c0,.5051-.3918.897-.8969.897h-2.6899c0,.3157-.0576.6156-.156.897h2.8459c.9861,0,1.7929-.8069,1.7929-1.7931V3.5431c0-.9852-.8069-1.7931-1.7929-1.7931H3.4919ZM7.0778,2.647h5.3788c.5051,0,.8969.3919.8969.897v.897h-5.8273c-.2442.0037-.4448-.1913-.4485-.4355v-1.3576h0v-.0009Z"/>
  <rect class="st0" x="1.2505" y="7.5777" width="7.1708" height="7.1723" rx="1.5" ry="1.5" fill="none" stroke="context-fill" stroke-opacity="context-fill-opacity" stroke-width="1.001"/>
  <path d="M3.4919,9.6995v2.9269c0,.1189.0966.2154.2154.2154.0399,0,.078-.0111.1123-.0316l2.1894-1.3381c.1708-.1049.2238-.3287.1188-.4996-.0297-.0483-.0706-.0891-.1188-.1189l-2.1894-1.339c-.1012-.0622-.234-.0297-.2962.0715-.0204.0344-.0316.0734-.0316.1133Z"/>
</svg>