<svg width="16" height="16" xmlns="http://www.w3.org/2000/svg" fill="context-fill" fill-opacity="context-fill-opacity">
  <path class="st0" d="M8.3,5.1c2,0,3.7,1.6,3.7,3.7s-.2,1.5-.6,2.1l2.5,2.5-.9.9-2.5-2.5c-.6.4-1.3.6-2.1.6-2,0-3.7-1.6-3.7-3.7s1.6-3.7,3.7-3.7ZM8.3,6.4c-1.3,0-2.3,1-2.3,2.3s1,2.3,2.3,2.3,2.3-1,2.3-2.3-1-2.3-2.3-2.3ZM14,8.4v2h-1.3v-2h1.3ZM3.3,8.4v.7h.7v1.3h-2v-2s1.3,0,1.3,0ZM3.3,5.1v2h-1.3v-2s1.3,0,1.3,0ZM14,5.1v2h-1.3v-2h1.3ZM14,1.7v2h-1.3v-.7h-.7v-1.3h2ZM4,1.7v1.3h-.7v.7h-1.3V1.7h2ZM10.7,1.7v1.3h-2v-1.3h2ZM7.3,1.7v1.3h-2v-1.3h2Z"/>
</svg>