<?xml version="1.0" encoding="UTF-8"?>
<svg id="_图层_1" data-name="图层_1" xmlns="http://www.w3.org/2000/svg" version="1.1" viewBox="0 0 16 16">
  <!-- Generator: Adobe Illustrator 29.7.1, SVG Export Plug-In . SVG Version: 2.1.1 Build 8)  -->
  <defs>
    <style>
      .st0 {
        fill: #212121;
      }
    </style>
  </defs>
  <path class="st0" d="M4.2105,3.4737c0-.4069.3299-.7368.7368-.7368h5.8947c.407,0,.7368.3299.7368.7368v1.4737c0,.4069-.3299.7368-.7368.7368h-5.8947c-.4069,0-.7368-.3299-.7368-.7368v-1.4737ZM5.3158,4.5789h5.1579v-.7368h-5.1579v.7368ZM2,2.3684c0-1.0174.8247-1.8421,1.8421-1.8421h8.4737c1.0174,0,1.8421.8247,1.8421,1.8421v5.329c-.3458-.1802-.7164-.3195-1.1053-.4114V2.3684c0-.4069-.3299-.7368-.7368-.7368H3.8421c-.4069,0-.7368.3299-.7368.7368v9.9474h4.0666c.0292.3828.1032.7529.2171,1.1053H3.1053c0,.407.3299.7368.7368.7368h3.8553c.2116.406.4797.7779.7939,1.1053H3.8421c-1.0174,0-1.8421-.8247-1.8421-1.8421V2.3684ZM16,11.9474c0-2.2382-1.8144-4.0526-4.0526-4.0526s-4.0526,1.8144-4.0526,4.0526,1.8144,4.0526,4.0526,4.0526,4.0526-1.8144,4.0526-4.0526ZM12.3162,12.3158l.0004,1.8447c0,.2035-.1649.3684-.3684.3684s-.3684-.1649-.3684-.3684l-.0004-1.8447h-1.8458c-.2033,0-.3681-.1649-.3681-.3684s.1648-.3684.3681-.3684h1.8457l-.0004-1.8426c0-.2035.165-.3684.3684-.3684s.3684.1649.3684.3684l.0004,1.8426h1.8392c.2033,0,.3681.165.3681.3684s-.1648.3684-.3681.3684h-1.8392Z"/>
</svg>