<svg width="16" height="16" xmlns="http://www.w3.org/2000/svg" fill="context-fill" fill-opacity="context-fill-opacity">
  <path  d="M9.4661,1.9222c-.8905-.5823-2.0412-.5823-2.9317,0L.7425,5.709c-.1501.0981-.2411.2648-.2425.4441-.0002.0198.0008.0395.0028.059-.0017.0172-.0025.0347-.0025.0524v4.2857c0,.2958.2399.5357.5357.5357s.5357-.2399.5357-.5357v-3.3831l1.0714.7253v3.9436c0,.1272.0458.2508.1282.3477l.0008.001.0021.0025.0063.0073.0207.0234c.0174.0193.0419.0462.0734.0793.063.0663.1542.1584.2724.2674.236.2178.5816.5057,1.0272.7932.89.5741,2.1952,1.1569,3.8262,1.1569s2.9361-.5829,3.8261-1.1569c.4456-.2875.7913-.5754,1.0272-.7932.1182-.1091.2094-.2011.2724-.2674.0315-.0332.056-.06.0734-.0793l.0207-.0234.0063-.0073.002-.0025.0015-.0017c.0823-.0969.1275-.2199.1275-.3469v-3.9439l1.9071-1.2911c.1485-.1005.2372-.2236.2354-.4479-.0014-.1793-.0925-.346-.2425-.4441l-5.7914-3.7868ZM12.286,8.6174v3.0066c-.0427.0431-.0959.0947-.1591.1531-.1993.184-.4965.4319-.8813.6801-.7708.4973-1.8763.9858-3.2453.9858s-2.4746-.4886-3.2454-.9858c-.3848-.2483-.682-.4962-.8813-.6801-.0632-.0584-.1164-.11-.1591-.1531v-3.0064l2.7841,1.8846c.9069.6138,2.0962.6138,3.003-.0001l2.7843-1.8847ZM3.1788,11.836l-.4075.3477s-.0006-.0007.4075-.3477ZM7.1207,2.8189c.5343-.3494,1.2247-.3493,1.759,0l5.1176,3.3384-5.0962,3.4575c-.5441.3683-1.2577.3684-1.8018,0l-5.0965-3.4498,5.1179-3.3462Z"/>
</svg>