<svg width="16" height="16" xmlns="http://www.w3.org/2000/svg" fill="context-fill" fill-opacity="context-fill-opacity">
  <path d="M7.028,1.1043c.3976-.8057,1.5465-.8057,1.9441,0l1.8321,3.7122,4.0967.5953c.889.1292,1.2441,1.2218.6007,1.849l-2.9643,2.8895.6998,4.0802c.1519.8855-.7776,1.5607-1.5729,1.1427l-3.6641-1.9263-3.6642,1.9263c-.7953.4181-1.7247-.2572-1.5728-1.1427l.6998-4.0802L.4984,7.2607c-.6434-.6271-.2884-1.7198.6008-1.849l4.0967-.5953,1.8321-3.7122ZM8,1.8562l-1.7521,3.5501c-.1579.3199-.4631.5417-.8162.593l-3.9178.5693,2.8349,2.7634c.2555.249.3721.6079.3117.9595l-.6692,3.902,3.5042-1.8422c.3158-.1661.6931-.1661,1.0089,0l3.5042,1.8422-.6692-3.902c-.0603-.3517.0562-.7105.3117-.9595l2.8349-2.7634-3.9177-.5693c-.3531-.0513-.6583-.2731-.8162-.593l-1.7521-3.5501Z"/>
</svg>