<svg width="16" height="16" xmlns="http://www.w3.org/2000/svg" fill="context-fill" fill-opacity="context-fill-opacity">
  <path d="M8.3907,1.4266c-.379-.768-1.4742-.768-1.8532,0l-1.7464,3.5386-3.9051.5674c-.8476.1232-1.186,1.1647-.5727,1.7626l2.8258,2.7545-.6671,3.8894c-.1448.8441.7412,1.4878,1.4993,1.0892l3.4929-1.8362.5533.2908c-.3409-.3146-.5544-.7652-.5544-1.2658,0-.0635.0034-.1263.0101-.1881-.1682-.0015-.3366.0381-.4899.1187l-3.3404,1.7561.6379-3.7196c.0575-.3352-.0536-.6772-.2972-.9146l-2.7024-2.6342,3.7346-.5427c.3366-.0489.6275-.2603.778-.5653l1.6702-3.3842.8411,1.7042c.2575-.1534.5585-.2415.88-.2415h.2811l-1.0756-2.1794ZM9.1852,4.7542c-.317,0-.5741.257-.5741.5741s.257.5741.5741.5741h5.7407c.317,0,.5741-.257.5741-.5741s-.2571-.5741-.5741-.5741h-5.7407ZM9.1852,8.1986c-.317,0-.5741.257-.5741.5741s.257.5741.5741.5741h5.7407c.317,0,.5741-.257.5741-.5741s-.2571-.5741-.5741-.5741h-5.7407ZM9.1852,11.6431c-.317,0-.5741.2571-.5741.5741s.257.5741.5741.5741h5.7407c.317,0,.5741-.257.5741-.5741s-.2571-.5741-.5741-.5741h-5.7407Z"/>
</svg>