<svg width="16" height="16" xmlns="http://www.w3.org/2000/svg" fill="context-fill" fill-opacity="context-fill-opacity">
  <path d="M3.4156,3.0009c-.11,0-.2163.0436-.2936.1218-.1627.1627-.1627.4264,0,.5891h0l4.2885,4.289-4.2885,4.2881c-.1627.1627-.1627.4264,0,.5891s.4263.1627.589,0l4.2885-4.289,4.2885,4.289c.1627.1618.4263.1618.5881,0,.1627-.1627.1627-.4264,0-.5891l-4.2867-4.2881,4.2885-4.289c.1627-.1627.1627-.4264,0-.5891s-.4263-.1627-.589,0l-4.2894,4.2881L3.7101,3.1218c-.0782-.0782-.1836-.1218-.2954-.1218h0l.0009.0009Z"/>
</svg>