<svg width="16" height="16" xmlns="http://www.w3.org/2000/svg" fill="context-fill" fill-opacity="context-fill-opacity">
  <path class="st0" d="M7.3958,4.9792c.3337,0,.6042-.2705.6042-.6042s-.2705-.6042-.6042-.6042-.6042.2705-.6042.6042.2705.6042.6042.6042ZM10.4167,4.9792c0,.3337-.2705.6042-.6042.6042s-.6042-.2705-.6042-.6042.2705-.6042.6042-.6042.6042.2705.6042.6042ZM12.2292,6.7917c0,.3337-.2705.6042-.6042.6042s-.6042-.2705-.6042-.6042.2705-.6042.6042-.6042.6042.2705.6042.6042ZM11.625,9.8125c.3336,0,.6042-.2705.6042-.6042s-.2705-.6042-.6042-.6042-.6042.2705-.6042.6042.2705.6042.6042.6042ZM11.0208,11.625c0,.3336-.2705.6042-.6042.6042s-.6042-.2705-.6042-.6042.2705-.6042.6042-.6042.6042.2705.6042.6042ZM8,.75C3.9959.75.75,3.9959.75,8c0,1.3347,1.082,2.4167,2.4167,2.4167.8551,0,1.3115-.4568,1.6197-.7653l.0158-.0158c.2957-.2957.4426-.4272.7811-.4272.6673,0,1.2083.541,1.2083,1.2083v1.2083c0,2.0021,1.623,3.625,3.625,3.625,1.6114,0,2.8443-.9019,3.6454-2.2404.7921-1.3234,1.1879-3.1014,1.1879-5.0096,0-4.0041-3.2459-7.25-7.25-7.25ZM1.9583,8c0-3.3367,2.705-6.0417,6.0417-6.0417s6.0417,2.705,6.0417,6.0417c0,1.7621-.3688,3.307-1.0163,4.389-.6385,1.0667-1.5202,1.6526-2.6087,1.6526-1.3347,0-2.4167-1.0819-2.4167-2.4167v-1.2083c0-1.3347-1.082-2.4167-2.4167-2.4167-.8551,0-1.3115.4568-1.6197.7653l-.0158.0158c-.2957.2957-.4426.4272-.7811.4272-.6673,0-1.2083-.541-1.2083-1.2083Z" />
</svg>