<?xml version="1.0" encoding="UTF-8"?>
<svg id="_图层_1" data-name="图层_1" xmlns="http://www.w3.org/2000/svg" version="1.1" viewBox="0 0 16 16">
  <!-- Generator: Adobe Illustrator 29.7.1, SVG Export Plug-In . SVG Version: 2.1.1 Build 8)  -->
  <defs>
    <style>
      .st0 {
        fill: #212121;
      }
    </style>
  </defs>
  <path class="st0" d="M5.8124,1c-1.2081,0-2.1875.9794-2.1875,2.1875v7c0,1.2081.9794,2.1875,2.1875,2.1875h7.0001c1.2081,0,2.1875-.9794,2.1875-2.1875V3.1875c0-1.2081-.9794-2.1875-2.1875-2.1875h-7.0001ZM14.125,3.1875v.4375h-5.6876c-.2416,0-.4375-.1959-.4375-.4375v-1.3125h4.8126c.7249,0,1.3125.5876,1.3125,1.3125ZM7.1249,3.1875c0,.7249.5876,1.3125,1.3125,1.3125h5.6876v5.6875c0,.7248-.5876,1.3125-1.3125,1.3125h-7.0001c-.7249,0-1.3125-.5877-1.3125-1.3125V3.1875c0-.7249.5876-1.3125,1.3125-1.3125h1.3125v1.3125ZM10.1876,15c1.0583,0,1.9411-.7515,2.1438-1.75h-.9059c-.1802.5098-.6663.875-1.2379.875h-5.6876c-1.4498,0-2.625-1.1753-2.625-2.625v-5.6875c0-.5715.3652-1.0576.875-1.2378v-.9059c-.9985.2027-1.75,1.0854-1.75,2.1437v5.6875c0,1.933,1.567,3.5,3.5001,3.5h5.6876Z"/>
</svg>