<?xml version="1.0" encoding="UTF-8"?>
<svg id="_图层_1" data-name="图层_1" xmlns="http://www.w3.org/2000/svg" version="1.1" viewBox="0 0 16 16">
  <!-- Generator: Adobe Illustrator 29.7.1, SVG Export Plug-In . SVG Version: 2.1.1 Build 8)  -->
  <defs>
    <style>
      .st0 {
        fill: #212121;
      }
    </style>
  </defs>
  <path class="st0" d="M13.7873,2.2127c-.9503-.9503-2.4912-.9503-3.4414,0l-7.3075,7.3074c-.3474.3474-.595.7817-.7172,1.2574l-.8067,3.1428c-.0408.1589.0054.3276.1214.4436.116.1159.2847.1621.4436.1213l3.1428-.8067c.4758-.1221.9101-.3698,1.2575-.7171l7.3075-7.3074c.9502-.9503.9502-2.4911,0-3.4414ZM11.0023,2.8692c.5877-.5878,1.5407-.5878,2.1285,0,.5878.5878.5878,1.5408,0,2.1285l-.723.723-2.1286-2.1285.7231-.723ZM9.6229,4.2486l2.1285,2.1285-5.928,5.928c-.2298.2298-.5171.3936-.8318.4744l-2.3827.6116.6116-2.3827c.0808-.3147.2446-.602.4744-.8318l5.928-5.928Z"/>
</svg>