<?xml version="1.0" encoding="UTF-8"?>
<svg id="_图层_1" data-name="图层_1" xmlns="http://www.w3.org/2000/svg" version="1.1" viewBox="0 0 16 16">
  <!-- Generator: Adobe Illustrator 29.7.1, SVG Export Plug-In . SVG Version: 2.1.1 Build 8)  -->
  <defs>
    <style>
      .st0 {
        fill: #212121;
      }
    </style>
  </defs>
  <path class="st0" d="M6.25,1.875c-.4832,0-.875.3918-.875.875v.4375c0,.2416-.1959.4375-.4375.4375s-.4375-.1959-.4375-.4375v-.4375c0-.9665.7835-1.75,1.75-1.75h.4375c.2416,0,.4375.1959.4375.4375s-.1959.4375-.4375.4375h-.4375ZM5.375,9.75c0,.4833.3918.875.875.875h.4375c.2416,0,.4375.1959.4375.4375s-.1959.4375-.4375.4375h-.4375c-.9665,0-1.75-.7835-1.75-1.75v-.4375c0-.2416.1959-.4375.4375-.4375s.4375.1959.4375.4375v.4375ZM5.375,4.9375c0-.2416-.1959-.4375-.4375-.4375s-.4375.1959-.4375.4375v2.625c0,.2416.1959.4375.4375.4375s.4375-.1959.4375-.4375v-2.625ZM13.25,1.875c.4833,0,.875.3918.875.875v.4375c0,.2416.1959.4375.4375.4375s.4375-.1959.4375-.4375v-.4375c0-.9665-.7835-1.75-1.75-1.75h-.4375c-.2416,0-.4375.1959-.4375.4375s.1959.4375.4375.4375h.4375ZM13.25,10.625c.4833,0,.875-.3917.875-.875v-.4375c0-.2416.1959-.4375.4375-.4375s.4375.1959.4375.4375v.4375c0,.9665-.7835,1.75-1.75,1.75h-.4375c-.2416,0-.4375-.1959-.4375-.4375s.1959-.4375.4375-.4375h.4375ZM14.5625,4.5c-.2416,0-.4375.1959-.4375.4375v2.625c0,.2416.1959.4375.4375.4375s.4375-.1959.4375-.4375v-2.625c0-.2416-.1959-.4375-.4375-.4375ZM8.4375,1c-.2416,0-.4375.1959-.4375.4375s.1959.4375.4375.4375h2.625c.2416,0,.4375-.1959.4375-.4375s-.1959-.4375-.4375-.4375h-2.625ZM8,11.0625c0-.2416.1959-.4375.4375-.4375h2.625c.2416,0,.4375.1959.4375.4375s-.1959.4375-.4375.4375h-2.625c-.2416,0-.4375-.1959-.4375-.4375ZM2.75,4.5h.875v.875h-.875c-.4832,0-.875.3918-.875.875v5.6875c0,1.2081.9794,2.1875,2.1875,2.1875h5.6875c.4833,0,.875-.3917.875-.875v-.875h.875v.875c0,.9665-.7835,1.75-1.75,1.75h-5.6875c-1.6914,0-3.0625-1.3711-3.0625-3.0625v-5.6875c0-.9665.7835-1.75,1.75-1.75Z"/>
</svg>