<?xml version="1.0" encoding="UTF-8"?>
<svg id="_图层_1" data-name="图层_1" xmlns="http://www.w3.org/2000/svg" version="1.1" viewBox="0 0 16 16">
  <!-- Generator: Adobe Illustrator 29.7.1, SVG Export Plug-In . SVG Version: 2.1.1 Build 8)  -->
  <defs>
    <style>
      .st0 {
        fill: #212121;
      }
    </style>
  </defs>
  <path class="st0" d="M13.9581,2.0417c0-.2992-.2426-.5417-.5417-.5417s-.5417.2425-.5417.5417v4.1628l-3.4353-3.4353c-1.6923-1.6923-4.436-1.6923-6.1283,0-1.6923,1.6923-1.6923,4.436,0,6.1283l5.4439,5.4439c.2115.2115.5545.2115.766,0,.2115-.2116.2115-.5546,0-.7661l-5.4439-5.4438c-1.2692-1.2692-1.2692-3.327,0-4.5962s3.327-1.2692,4.5962,0l3.3814,3.3814h-4.0551c-.2992,0-.5417.2425-.5417.5417s.2425.5417.5417.5417h5.3084c.3589,0,.65-.291.65-.65V2.0417Z"/>
</svg>