<?xml version="1.0" encoding="UTF-8"?>
<svg id="_图层_1" xmlns="http://www.w3.org/2000/svg" version="1.1" viewBox="0 0 16 16">
  <!-- Generator: Adobe Illustrator 29.7.1, SVG Export Plug-In . SVG Version: 2.1.1 Build 8)  -->
  <defs>
    <style>
      .st0 {
        fill: #212121;
      }
    </style>
  </defs>
  <path class="st0" d="M3.1609,3.5229l-.0003,7.2425c0,1.6037,1.2481,2.9158,2.8258,3.0183l.1989.0064,5.3408.0008c-.2494.7044-.9214,1.2091-1.7112,1.2091h-4.2345c-2.0046,0-3.6296-1.6249-3.6296-3.6296v-6.1358c0-.7903.5051-1.4626,1.2102-1.7116h-.0001ZM12.2344,1c1.0023,0,1.8148.8125,1.8148,1.8148v7.9506c0,1.0023-.8125,1.8148-1.8148,1.8148h-6.0493c-1.0023,0-1.8148-.8125-1.8148-1.8148V2.8148c0-1.0023.8125-1.8148,1.8148-1.8148h6.0493ZM12.2344,2.2099h-6.0493c-.3341,0-.6049.2709-.6049.6049v7.9506c0,.334.2709.6049.6049.6049h6.0493c.334,0,.6049-.2709.6049-.6049V2.8148c0-.3341-.2709-.6049-.6049-.6049Z"/>
</svg>