<svg width="16" height="16" xmlns="http://www.w3.org/2000/svg" fill="context-fill" fill-opacity="context-fill-opacity">
  <path d="M8.45,14.165l5.6589-5.7125c1.5265-1.5504,1.5217-4.0545-.0153-5.6069-1.5069-1.5221-3.9221-1.5615-5.4611-.1102-.0332.0313-.0659.0633-.0982.0959l-.5405.5469-.5479-.5534c-.03-.0303-.0604-.0601-.0912-.0892-1.5423-1.4626-3.9615-1.4402-5.4616.075-1.53,1.5454-1.5226,4.0565.0141,5.6086l5.6884,5.7457c.236.2383.6185.2383.8544,0ZM9.1781,3.469c1.1749-1.1862,3.0835-1.1856,4.2714.0143,1.189,1.201,1.1907,3.1368.0144,4.3326l-.0009.0009-5.4402,5.4918L2.5511,7.7818c-1.1902-1.2022-1.1913-3.1444-.0141-4.3334,1.1721-1.1839,3.0794-1.183,4.2648.0143l.8702.8789c.1774.1792.4671.1791.6443-.0003l.8618-.8722Z"/>
</svg>