<svg width="16" height="16" xmlns="http://www.w3.org/2000/svg" fill="context-fill" fill-opacity="context-fill-opacity">
  <path d="M7.4267,2.6998c-1.5897-1.5897-4.1615-1.5974-5.7443-.0146-1.5828,1.5828-1.5751,4.1546.0146,5.7443l5.8846,5.8847c.2441.244.6398.244.8839,0l5.854-5.8506c1.5791-1.588,1.5741-4.1525-.0159-5.7425-1.5924-1.5925-4.1655-1.6003-5.7511-.0146l-.5591.5602-.5668-.5668ZM13.4331,7.5821l-5.4096,5.4062L2.5809,7.5456c-1.1027-1.1027-1.108-2.883-.0146-3.9764s2.8738-1.0881,3.9764.0146l1.0117,1.0117c.2483.2482.6522.2434.8944-.0108l.9875-.9944c1.0963-1.0963,2.8778-1.0909,3.9833.0146,1.103,1.103,1.1064,2.878.0134,3.9771Z"/>
</svg>