<svg width="16" height="16" xmlns="http://www.w3.org/2000/svg" fill="context-fill" fill-opacity="context-fill-opacity">
  <path d="M14.1088,8.4526l-5.6589,5.7125c-.2359.2383-.6185.2383-.8544,0L1.9071,8.4193c-1.5367-1.5521-1.5441-4.0632-.0141-5.6086,1.5001-1.5152,3.9193-1.5376,5.4616-.075.0307.0292.0611.0589.0912.0892l.5476.5531.0512-.0513.4896-.4954c.0324-.0327.0651-.0647.0982-.0959,1.5391-1.4512,3.9542-1.4119,5.4611.1102,1.537,1.5524,1.5418,4.0564.0153,5.6069ZM8.8908,3.7598c-.0085.0101-.0175.0199-.027.0294l-.1765.1765-.371.3755c-.0135.0136-.0276.0262-.0422.0377l-.9023.9024,2.0963,2.0963c.177.177.177.4639,0,.6408l-1.8125,1.8126c-.177.1769-.4639.1769-.6408,0-.177-.177-.177-.4639,0-.6408l1.4922-1.4922-2.0964-2.0963c-.177-.177-.177-.4639,0-.6408l.942-.942-.5508-.5563c-1.1853-1.1973-3.0926-1.1982-4.2648-.0143-1.1772,1.1891-1.1761,3.1312.0141,4.3334l5.4717,5.5268,5.4402-5.4918.0009-.0009c1.1763-1.1958,1.1746-3.1316-.0144-4.3326-1.1879-1.1999-3.0966-1.2005-4.2714-.0143l-.2873.2908Z"/>
</svg>