<svg width="16" height="16" xmlns="http://www.w3.org/2000/svg" fill="context-fill" fill-opacity="context-fill-opacity">
  <path d="M1.6824,2.6852c1.5828-1.5828,4.1546-1.5751,5.7443.0146l.5668.5668.5591-.5602c1.5856-1.5856,4.1587-1.5779,5.7511.0146,1.5899,1.59,1.5949,4.1546.0159,5.7425l-5.854,5.8506c-.2441.244-.6398.244-.8839,0L1.697,8.4295c-1.5897-1.5897-1.5974-4.1615-.0146-5.7443ZM8.0236,12.9882l5.4096-5.4062c1.093-1.0992,1.0897-2.8742-.0134-3.9771-1.1055-1.1055-2.887-1.1109-3.9833-.0146l-.3126.3148c-.0171.0226-.036.0442-.0565.0648l-1.4331,1.4331,2.0581,2.0581c.2441.2441.2441.6398,0,.8839l-1.8751,1.8751c-.2441.2441-.6398.2441-.8839,0-.2441-.2441-.2441-.6398,0-.8839l1.4331-1.4331-2.0581-2.0581c-.2441-.2441-.2441-.6398,0-.8839l.8059-.8059-.5714-.5714c-1.1027-1.1027-2.883-1.108-3.9764-.0146s-1.0881,2.8738.0146,3.9764l5.4426,5.4427Z"/>
</svg>