<svg width="16" height="16" xmlns="http://www.w3.org/2000/svg" fill="context-fill" fill-opacity="context-fill-opacity">
  <path d="M4,2c-1.1046,0-2,.8954-2,2v8c0,1.1046.8954,2,2,2h8c1.1046,0,2-.8954,2-2v-2.5c0-.2761.2239-.5.5-.5s.5.2239.5.5v2.5c0,1.6569-1.3431,3-3,3H4c-1.6568,0-3-1.3431-3-3V4c0-1.6568,1.3432-3,3-3h2.5c.2761,0,.5.2239.5.5s-.2239.5-.5.5h-2.5ZM9,1.5c0-.2761.2239-.5.5-.5h5c.2761,0,.5.2239.5.5v5c0,.2761-.2239.5-.5.5s-.5-.2239-.5-.5v-3.7929l-4.1464,4.1464c-.1953.1953-.5119.1953-.7072,0-.1952-.1953-.1952-.5118,0-.7071l4.1465-4.1465h-3.7929c-.2761,0-.5-.2239-.5-.5Z"/>
</svg>