<svg width="16" height="16" xmlns="http://www.w3.org/2000/svg" fill="context-fill" fill-opacity="context-fill-opacity">
  <path d="M8,1.5714c3.5504,0,6.4286,2.8782,6.4286,6.4286s-2.8782,6.4286-6.4286,6.4286S1.5714,11.5504,1.5714,8c0-.1667.0063-.3318.0187-.4951.0224-.295-.1985-.5524-.4935-.5748s-.5524.1985-.5748.4935c-.0145.1903-.0218.3825-.0218.5764,0,4.1421,3.3579,7.5,7.5,7.5s7.5-3.3579,7.5-7.5S12.1421.5,8,.5c-2.099,0-3.9963.8625-5.3571,2.2512v-1.7155c0-.2959-.2398-.5357-.5357-.5357s-.5357.2399-.5357.5357v3.2143c0,.2959.2398.5357.5357.5357h3.2143c.2959,0,.5357-.2398.5357-.5357s-.2398-.5357-.5357-.5357h-2.1132c1.1776-1.3158,2.8882-2.1429,4.7917-2.1429ZM8,4.25c0-.2959-.2398-.5357-.5357-.5357s-.5357.2398-.5357.5357v4.2857c0,.2958.2398.5357.5357.5357h3.2143c.2958,0,.5357-.2399.5357-.5357s-.2399-.5357-.5357-.5357h-2.6786v-3.75Z"/>
</svg>