<svg width="16" height="16" xmlns="http://www.w3.org/2000/svg" fill="context-fill" fill-opacity="context-fill-opacity">
  <path d="M7.986,1.75c3.4582,0,6.2617,2.7982,6.2617,6.25s-2.8035,6.25-6.2617,6.25c-3.266,0-5.9486-2.4962-6.2361-5.6811-.031-.3438-.3354-.5974-.6798-.5664-.3444.031-.5985.3348-.5674.6786.3452,3.8233,3.5635,6.8189,7.4834,6.8189,4.1499,0,7.514-3.3579,7.514-7.5S12.1359.5,7.986.5c-2.2448,0-4.2591.9827-5.6355,2.5392v-1.9142c0-.3452-.2803-.625-.6262-.625s-.6262.2798-.6262.625v3.75c0,.3452.2803.625.6262.625h.1115c.0086.0002.0172.0002.0257,0h3.6198c.3458,0,.6262-.2798.6262-.625s-.2803-.625-.6262-.625h-2.5052c1.1429-1.5188,2.962-2.5,5.0099-2.5ZM7.986,4.875c0-.3452-.2803-.625-.6262-.625s-.6262.2798-.6262.625v3.75c0,.3452.2803.625.6262.625h2.5047c.3458,0,.6262-.2798.6262-.625s-.2803-.625-.6262-.625h-1.8785v-3.125Z"/>
</svg>