<?xml version="1.0" encoding="UTF-8"?>
<svg id="_图层_1" data-name="图层_1" xmlns="http://www.w3.org/2000/svg" version="1.1" viewBox="0 0 16 16">
  <!-- Generator: Adobe Illustrator 29.7.1, SVG Export Plug-In . SVG Version: 2.1.1 Build 8)  -->
  <defs>
    <style>
      .st0 {
        fill: #212121;
      }
    </style>
  </defs>
  <path class="st0" d="M7.2344,1.0546c.4296-.4062,1.1016-.4062,1.5312,0l5.3974,5.103c.334.3157.5232.755.5232,1.2146v6.2062c0,.9231-.7484,1.6715-1.6715,1.6715h-2.2287c-.9232,0-1.6715-.7484-1.6715-1.6715v-2.7859c0-.3077-.2495-.5572-.5572-.5572h-1.1144c-.3077,0-.5572.2495-.5572.5572v2.7859c0,.9231-.7484,1.6715-1.6715,1.6715h-2.2287c-.9232,0-1.6715-.7484-1.6715-1.6715v-6.2062c0-.4596.1892-.8989.5232-1.2146L7.2344,1.0546ZM8,1.8644L2.6026,6.9674c-.1113.1053-.1744.2517-.1744.4049v6.2062c0,.3077.2495.5572.5572.5572h2.2287c.3077,0,.5572-.2495.5572-.5572v-2.7859c0-.9231.7484-1.6715,1.6715-1.6715h1.1144c.9232,0,1.6715.7484,1.6715,1.6715v2.7859c0,.3077.2495.5572.5572.5572h2.2287c.3077,0,.5572-.2495.5572-.5572v-6.2062c0-.1532-.0631-.2996-.1744-.4049L8,1.8644Z"/>
</svg>