<svg width="16" height="16" xmlns="http://www.w3.org/2000/svg" fill="context-fill" fill-opacity="context-fill-opacity">
  <path d="M10.3437.5c-2.8838,0-5.1563,2.2725-5.1563,5.1562,0,.3722.0375.7453.1134,1.1006.0544.2531-.0066.4734-.1312.5991L.9116,11.6122c-.2641.2643-.4122.6229-.4116.9966v1.485c0,.7767.6296,1.4062,1.4062,1.4062h1.875c.7767,0,1.4062-.6296,1.4062-1.4062h0v-.4688h.9375c.5178,0,.9375-.4197.9375-.9375v-.9375h.9375c.5178,0,.9375-.4197.9375-.9375v-.1688c.4622.1256.9441.1688,1.4063.1688,2.8838,0,5.1562-2.2725,5.1562-5.1562S13.2275.5,10.3437.5ZM10.3437,1.4375c2.3663,0,4.2188,1.8525,4.2188,4.2188s-1.8525,4.2188-4.2188,4.2188c-.6187,0-1.1944-.09-1.6659-.3262-.2317-.1155-.5131-.0212-.6286.2105-.0324.0651-.0493.1368-.0492.2095v.8437h-.9375c-.5178,0-.9375.4197-.9375.9375v.9375h-.9375c-.5178,0-.9375.4197-.9375.9375v.4688c0,.2589-.2099.4688-.4688.4688h-1.875c-.2589,0-.4688-.2099-.4688-.4688v-1.4869c0-.1245.0496-.2439.1378-.3319l4.2562-4.2562c.4059-.4059.4903-.9788.3872-1.4587-.0628-.2971-.0942-.6-.0937-.9037,0-2.3662,1.8525-4.2188,4.2188-4.2188ZM11.75,3.3125c-.5178,0-.9375.4197-.9375.9375s.4197.9375.9375.9375.9375-.4197.9375-.9375-.4197-.9375-.9375-.9375Z"/>
</svg>