<?xml version="1.0" encoding="UTF-8"?>
<svg id="_图层_1" xmlns="http://www.w3.org/2000/svg" version="1.1" viewBox="0 0 16 16">
  <!-- Generator: Adobe Illustrator 29.7.1, SVG Export Plug-In . SVG Version: 2.1.1 Build 8)  -->
  <defs>
    <style>
      .st0 {
        fill: #212121;
      }
    </style>
  </defs>
  <path class="st0" d="M10.5499,6c-2.4854,0-4.5,2.0147-4.5,4.5s2.0146,4.5,4.5,4.5,4.5-2.0147,4.5-4.5-2.0147-4.5-4.5-4.5ZM13.0499,10.503c-.0004.0667-.0139.1303-.0379.1884-.0241.0581-.0595.1126-.1064.16l-.0025.0026-1.9996,1.9996c-.1953.1951-.5119.1951-.7072,0-.1952-.1953-.1952-.5119,0-.7072l1.1465-1.1464h-2.7929c-.2761,0-.5-.2239-.5-.5s.2239-.5.5-.5h2.7929l-1.1465-1.1464c-.1952-.1953-.1952-.5118,0-.7071.1953-.1953.5119-.1953.7072,0l2,1.9999c.0479.048.0841.1032.1085.1622.024.0581.0375.1217.0379.1884v.006Z"/>
  <path class="st0" d="M6.5495,14.0001h-.0001s-2.9994-.0001-2.9994-.0001c-.2761,0-.5-.2239-.5-.5V3.5c0-.2761.2239-.5.5-.5h.5854c.2059.5826.7615,1,1.4146,1h3c.6531,0,1.2087-.4174,1.4146-1h.5854c.2761,0,.5.2239.5.5v1.6798c.3541.0287.686.0892.9996.1741h.0001s.0002,0,.0003,0v-1.8539c0-.8284-.6716-1.5-1.5-1.5h-.5854c-.2059-.5826-.7615-1-1.4146-1h-3c-.6531,0-1.2087.4174-1.4146,1h-.5853c-.8284,0-1.5.6716-1.5,1.5v10c0,.8284.6716,1.5,1.5,1.5h4.0814c-.4196-.2792-.7803-.6171-1.082-.9999ZM5.5499,2h3c.2761,0,.5.2239.5.5s-.2239.5-.5.5h-3c-.2761,0-.5-.2239-.5-.5s.2239-.5.5-.5Z"/>
</svg>