<svg width="16" height="16" xmlns="http://www.w3.org/2000/svg" fill="context-fill" fill-opacity="context-fill-opacity">
      <circle cx="12" cy="11" r="2"/>
      <circle cx="4" cy="5" r="2"/>
      <path d="M13.488,0H2.512C1.1246,0,0,1.1246,0,2.512v10.9761c0,1.3873,1.1246,2.512,2.512,2.512h10.9761c1.3873,0,2.512-1.1246,2.512-2.512V2.512c0-1.3873-1.1246-2.512-2.512-2.512ZM14.497,4c.2761,0,.5.2239.5.5s-.2239.5-.5.5h-6.5c0-.3373-.0427-.6733-.127-1h6.627ZM4,2c1.6569,0,3,1.3431,3,3s-1.3431,3-3,3-3-1.3431-3-3,1.3431-3,3-3ZM1.5,12c-.2761,0-.5-.2239-.5-.5s.2239-.5.5-.5h6.495c.0026.3377.048.6737.135,1H1.5ZM12,14c-1.6569,0-3-1.3431-3-3s1.3431-3,3-3,3,1.3431,3,3-1.3431,3-3,3Z"/>
</svg>