<svg width="16" height="16" xmlns="http://www.w3.org/2000/svg" fill="context-fill" fill-opacity="context-fill-opacity">
  <path d="M11.5021.5h-7.0042C2.2899.5.5,2.2899.5,4.4979v7.0042c0,2.208,1.7899,3.9979,3.9979,3.9979h7.0042c2.208,0,3.9979-1.7899,3.9979-3.9979v-7.0042c0-2.208-1.7899-3.9979-3.9979-3.9979ZM14.497,4c.2761,0,.5.2239.5.5s-.2239.5-.5.5h-6.5c0-.3373-.0427-.6733-.127-1h6.627ZM4,2c1.6569,0,3,1.3431,3,3s-1.3431,3-3,3-3-1.3431-3-3,1.3431-3,3-3ZM1.5,12c-.2761,0-.5-.2239-.5-.5s.2239-.5.5-.5h6.495c.0026.3377.048.6737.135,1H1.5ZM12,14c-1.6569,0-3-1.3431-3-3s1.3431-3,3-3,3,1.3431,3,3-1.3431,3-3,3Z"/>
  <circle cx="12" cy="11" r="2"/>
  <circle cx="4" cy="5" r="2"/>
</svg>