<?xml version="1.0" encoding="UTF-8"?>
<svg id="_图层_1" data-name="图层_1" xmlns="http://www.w3.org/2000/svg" version="1.1" viewBox="0 0 16 16">
  <!-- Generator: Adobe Illustrator 29.7.1, SVG Export Plug-In . SVG Version: 2.1.1 Build 8)  -->
  <defs>
    <style>
      .st0 {
        fill: #212121;
      }
    </style>
  </defs>
  <path class="st0" d="M10.4162,1.5074c-.8318-.8348-2.2339-.6272-2.7882.4128l-2.3602,4.4288-3.2841,1.0947c-.1921.064-.3373.2229-.3838.42-.0465.1971.0123.4041.1555.5473l2.508,2.508-3.0922,3.0921-.1711.9974.9973-.1712,3.0922-3.0921,2.508,2.5079c.1432.1432.3503.202.5473.1555.1971-.0465.356-.1917.42-.3838l1.0949-3.2847,4.4146-2.3634c1.0355-.5543,1.2433-1.9503.4143-2.7822L10.4162,1.5074ZM8.6592,2.4697c.1848-.3467.6521-.4159.9294-.1376l4.0725,4.0871c.2763.2773.2069.7426-.1381.9274l-4.6197,2.4731c-.1316.0705-.2313.1887-.2785.3303l-.8695,2.6085-4.5053-4.5052,2.6085-.8695c.142-.0473.2604-.1474.3308-.2795l2.4699-4.6345Z"/>
</svg>