<?xml version="1.0" encoding="UTF-8"?>
<svg id="_图层_1" xmlns="http://www.w3.org/2000/svg" version="1.1" viewBox="0 0 16 16">
  <!-- Generator: Adobe Illustrator 29.7.1, SVG Export Plug-In . SVG Version: 2.1.1 Build 8)  -->
  <defs>
    <style>
      .st0 {
        fill: #212121;
      }
    </style>
  </defs>
  <path class="st0" d="M1.7525,8c0-3.4518,2.8035-6.25,6.2617-6.25,2.0479,0,3.8669.9812,5.0099,2.5h-2.5053c-.3459,0-.6261.2799-.6261.625s.2804.625.6261.625h3.6197c.0086.0002.0172.0002.0258,0h.1114c.3458,0,.6261-.2799.6261-.625V1.125c0-.3452-.2804-.625-.6261-.625s-.6261.2799-.6261.625v1.9142c-1.3765-1.5566-3.3906-2.5392-5.6355-2.5392C3.8641.5.5,3.8579.5,8s3.3641,7.5,7.514,7.5c3.92,0,7.1382-2.9956,7.4834-6.8189.0309-.3438-.2231-.6476-.5674-.6785-.3445-.031-.6488.2226-.6799.5664-.2876,3.1848-2.9702,5.6811-6.2361,5.6811-3.4583,0-6.2616-2.7983-6.2616-6.25h.0001Z"/>
</svg>