<svg width="16" height="16" xmlns="http://www.w3.org/2000/svg" fill="context-fill" fill-opacity="context-fill-opacity">
  <path
d="M2.1667,3.2778c0-.9205.7462-1.6667,1.6667-1.6667h8.8889c.9204,0,1.6667.7462,1.6667,1.6667v5.5556c0,.9205-.7462,1.6667-1.6667,1.6667h-4.4444v-1.1111h4.4444c.3068,0,.5556-.2487.5556-.5556V3.2778c0-.3068-.2488-.5556-.5556-.5556H3.8333c-.3068,0-.5556.2487-.5556.5556h-.5556c-.1918,0-.378.0243-.5556.07v-.07ZM14.9444,12.7222h-6.6667v-1.1111h6.6667c.3068,0,.5556.2488.5556.5556s-.2488.5556-.5556.5556ZM3.8333,12.7222c.3068,0,.5556-.2488.5556-.5556s-.2487-.5556-.5556-.5556-.5556.2488-.5556.5556.2487.5556.5556.5556ZM.5,6.0556c0-.9205.7462-1.6667,1.6667-1.6667h3.3333c.9205,0,1.6667.7462,1.6667,1.6667v6.6667c0,.9204-.7462,1.6667-1.6667,1.6667h-3.3333c-.9205,0-1.6667-.7462-1.6667-1.6667v-6.6667ZM2.1667,5.5c-.3068,0-.5556.2487-.5556.5556v6.6667c0,.3068.2487.5556.5556.5556h3.3333c.3068,0,.5556-.2488.5556-.5556v-6.6667c0-.3068-.2487-.5556-.5556-.5556h-3.3333Z"/>
</svg>