<svg width="16" height="16" xmlns="http://www.w3.org/2000/svg" fill="context-fill" fill-opacity="context-fill-opacity">
  <path d="M7.9999,5.4159c-1.4407,0-2.6087,1.157-2.6087,2.5842s1.1679,2.5842,2.6087,2.5842,2.6087-1.157,2.6087-2.5842-1.1679-2.5842-2.6087-2.5842ZM6.6956,8.0001c0-.7136.584-1.2921,1.3043-1.2921s1.3043.5785,1.3043,1.2921-.584,1.2921-1.3043,1.2921-1.3043-.5785-1.3043-1.2921ZM11.4148,3.3464c-.5022.0903-.9836-.238-1.0752-.7334l-.3388-1.8293c-.0337-.1818-.1753-.3255-.3585-.364-.536-.1125-1.0856-.1697-1.6423-.1697-.5571,0-1.107.0573-1.6433.1699-.1833.0385-.3249.1823-.3585.3642l-.3378,1.829c-.009.0486-.022.0965-.0389.1432-.1718.4742-.7008.7212-1.1815.5518l-1.7732-.6254c-.1762-.0622-.3731-.0133-.4986.1237-.742.8101-1.3043,1.766-1.6457,2.8073-.0576.1757-.0021.3683.1406.4878l1.4373,1.2036c.0382.032.0738.0671.1063.1048.3304.3838.2828.9592-.1063,1.2852l-1.4373,1.2036c-.1427.1195-.1982.3121-.1406.4878.3414,1.0414.9037,1.9973,1.6457,2.8074.1255.137.3223.1858.4986.1237l1.7733-.6255c.0472-.0165.0958-.0295.1451-.0384.5022-.0903.9836.238,1.0752.7334l.3378,1.829c.0336.1819.1752.3257.3585.3642.5363.1125,1.0862.1698,1.6433.1698.5568,0,1.1063-.0571,1.6423-.1697.1832-.0384.3248-.1822.3585-.364l.3388-1.8292c.009-.0488.022-.0966.0389-.1433.1718-.4742.7008-.7213,1.1816-.5519l1.7731.6255c.1763.0621.3732.0133.4987-.1237.742-.8101,1.3043-1.766,1.6457-2.8074.0577-.1757.0021-.3683-.1406-.4878l-1.4373-1.2036c-.0383-.032-.0738-.0671-.1063-.1049-.3305-.3838-.2829-.9592.1063-1.2852l1.4373-1.2036c.1427-.1195.1983-.3121.1406-.4878-.3413-1.0414-.9036-1.9972-1.6457-2.8073-.1255-.137-.3223-.1858-.4987-.1237l-1.7733.6254c-.0472.0166-.0957.0295-.1452.0383ZM2.7808,4.0944l1.2216.4308c1.1543.4069,2.4306-.1842,2.8467-1.3325.0409-.1128.0725-.2291.0943-.3471l.2314-1.2529c.2717-.0336.5471-.0506.8252-.0506.2778,0,.553.017.8245.0505l.2321,1.2535c.2223,1.2012,1.3859,1.9884,2.5912,1.7716.1187-.0214.2358-.0523.3496-.0924l1.2218-.4309c.3326.431.6091.9012.8224,1.3998l-.9841.8241c-.9402.7875-1.0564,2.1812-.2566,3.1103.0784.0911.1643.1759.2567.2532l.984.824c-.2133.4986-.4898.9688-.8224,1.3998l-1.2219-.4309c-1.1542-.4069-2.4304.1843-2.8465,1.3327-.0409.1128-.0724.2291-.0943.3471l-.232,1.253c-.2715.0336-.5467.0505-.8245.0505-.278,0-.5534-.0169-.8252-.0507l-.2314-1.253c-.2221-1.2014-1.3859-1.9888-2.5913-1.772-.1187.0214-.2358.0523-.3496.0925l-1.2217.4308c-.3327-.431-.6092-.9012-.8224-1.3998l.984-.8241c.9402-.7875,1.0565-2.1812.2566-3.1103-.0785-.0912-.1644-.1759-.2567-.2532l-.984-.824c.2132-.4986.4897-.9688.8224-1.3998Z"/>
</svg>