<svg width="16" height="16" xmlns="http://www.w3.org/2000/svg" fill="context-fill" fill-opacity="context-fill-opacity">
  <path d="M.8389,5.0823c-.3701-1.3813.4496-2.8011,1.8309-3.1712L6.6715.8389c1.3813-.3701,2.8011.4496,3.1712,1.8309l.5957,2.223h-1.0722l-.5238-1.955c-.222-.8288-1.074-1.3206-1.9027-1.0985l-4.0017,1.0722c-.8288.222-1.3206,1.074-1.0985,1.9027l1.0722,4.0017c.222.8288,1.074,1.3206,1.9027,1.0985l.0786-.0211v1.0649c-1.3194.2507-2.6286-.5561-2.9818-1.8743L.8389,5.0823ZM8,5.9285c-1.144,0-2.0715.9274-2.0715,2.0715v5.1785c0,1.144.9274,2.0715,2.0715,2.0715h5.1785c1.144,0,2.0715-.9274,2.0715-2.0715v-5.1785c0-1.144-.9274-2.0715-2.0715-2.0715,0,0-5.1785,0-5.1785,0ZM6.9643,8c0-.572.4637-1.0357,1.0357-1.0357h5.1785c.5721,0,1.0357.4637,1.0357,1.0357v5.1785c0,.5721-.4637,1.0357-1.0357,1.0357h-5.1785c-.572,0-1.0357-.4637-1.0357-1.0357,0,0,0-5.1785,0-5.1785Z"/>
  <path d="M13.0268,10.956l.0031-.0031c.0487-.0487.085-.1057.1098-.1657s.0393-.1263.0393-.1947v-.0062c0-.0694-.0145-.1347-.0393-.1947-.0248-.0611-.0632-.118-.1129-.1678l-2.0715-2.0715c-.2019-.2019-.5303-.2019-.7322,0-.2019.2019-.2019.5303,0,.7322l1.187,1.187h-2.8927c-.2858,0-.5178.232-.5178.5178s.232.5178.5178.5178h2.8927l-1.187,1.187c-.2019.2019-.2019.5303,0,.7322s.5303.2019.7322,0l2.0715-2.0715v.0011h0Z"/>
</svg>