<svg width="16" height="16" xmlns="http://www.w3.org/2000/svg" fill="context-fill" fill-opacity="context-fill-opacity">
  <path d="M.8389,5.0824c-.3702-1.3813.4496-2.8011,1.8309-3.1712L6.6715.8389c1.3813-.3702,2.8011.4496,3.1712,1.8309l.5957,2.223h-1.0723l-.5239-1.955c-.2221-.8288-1.0739-1.3206-1.9027-1.0986l-4.0017,1.0723c-.8288.2221-1.3206,1.0739-1.0986,1.9027l1.0723,4.0016c.2221.8288,1.0739,1.3206,1.9027,1.0986l.0786-.021v1.0648c-1.3194.2506-2.6285-.5561-2.9817-1.8743L.839,5.0823h-.0001ZM8,5.9287c-1.144,0-2.0714.9274-2.0714,2.0714v5.1785c0,1.144.9274,2.0714,2.0714,2.0714h5.1786c1.144,0,2.0714-.9274,2.0714-2.0714v-5.1785c0-1.144-.9274-2.0714-2.0714-2.0714h-5.1786ZM6.9643,8.0001c0-.572.4637-1.0357,1.0357-1.0357h5.1786c.572,0,1.0357.4637,1.0357,1.0357v5.1785c0,.572-.4637,1.0357-1.0357,1.0357h-5.1786c-.572,0-1.0357-.4637-1.0357-1.0357v-5.1785ZM11.1071,8.5179c0-.286-.2319-.5179-.5179-.5179s-.5179.2319-.5179.5179v1.5536h-1.5536c-.286,0-.5179.2319-.5179.5179s.2319.5179.5179.5179h1.5536v1.5536c0,.286.2319.5179.5179.5179s.5179-.2319.5179-.5179v-1.5536h1.5536c.286,0,.5179-.2319.5179-.5179s-.2319-.5179-.5179-.5179h-1.5536v-1.5536Z"/>
</svg>