<svg width="16" height="16" xmlns="http://www.w3.org/2000/svg" fill="context-fill" fill-opacity="context-fill-opacity">
  <path d="M1.0858,5.1829c-.3574-1.3337.4341-2.7045,1.7678-3.0619l3.8637-1.0353c1.3337-.3574,2.7045.4341,3.0619,1.7678l.5752,2.1464h-1.0353l-.5058-1.8876c-.2144-.8002-1.0369-1.2751-1.8371-1.0607l-3.8637,1.0353c-.8002.2144-1.2751,1.0369-1.0607,1.8371l1.0353,3.8637c.2144.8002,1.0369,1.2751,1.8371,1.0607l.0759-.0203v1.0281c-1.2739.242-2.5379-.5369-2.8789-1.8097l-1.0353-3.8637ZM8,6c-1.1046,0-2,.8954-2,2v5c0,1.1046.8954,2,2,2h5c1.1046,0,2-.8954,2-2v-5c0-1.1046-.8954-2-2-2h-5ZM7,8c0-.5523.4477-1,1-1h5c.5523,0,1,.4477,1,1v5c0,.5523-.4477,1-1,1h-5c-.5523,0-1-.4477-1-1v-5ZM11,8.5c0-.2761-.2239-.5-.5-.5s-.5.2239-.5.5v1.5h-1.5c-.2761,0-.5.2239-.5.5s.2239.5.5.5h1.5v1.5c0,.2761.2239.5.5.5s.5-.2239.5-.5v-1.5h1.5c.2761,0,.5-.2239.5-.5s-.2239-.5-.5-.5h-1.5v-1.5Z"/>
</svg>