<svg width="16" height="16" xmlns="http://www.w3.org/2000/svg" fill="context-fill" fill-opacity="context-fill-opacity">
  <path d="M.5919,4.9817c-.3829-1.4289.4651-2.8977,1.894-3.2806L6.6257.5919c1.4289-.3829,2.8977.4651,3.2806,1.894l.6162,2.2997h-1.1092l-.5419-2.0224c-.2297-.8574-1.111-1.3661-1.9683-1.1364l-4.1397,1.1092c-.8574.2297-1.3661,1.111-1.1364,1.9683l1.1092,4.1397c.2297.8574,1.111,1.3661,1.9683,1.1364l.0813-.0218v1.1016c-1.3649.2593-2.7192-.5753-3.0846-1.9389L.5919,4.9817ZM8,5.8571c-1.1835,0-2.1429.9594-2.1429,2.1429v5.3571c0,1.1835.9594,2.1429,2.1429,2.1429h5.3571c1.1835,0,2.1429-.9594,2.1429-2.1429v-5.3571c0-1.1835-.9594-2.1429-2.1429-2.1429h-5.3571ZM6.9286,8c0-.5917.4797-1.0714,1.0714-1.0714h5.3571c.5918,0,1.0714.4797,1.0714,1.0714v5.3571c0,.5918-.4797,1.0714-1.0714,1.0714h-5.3571c-.5917,0-1.0714-.4797-1.0714-1.0714v-5.3571Z"/>
  <path d="M13.2002,11.0579l.0032-.0032c.0504-.0504.0879-.1093.1136-.1714s.0407-.1307.0407-.2014v-.0064c0-.0718-.015-.1393-.0407-.2014-.0257-.0632-.0654-.1221-.1168-.1736l-2.1429-2.1429c-.2089-.2089-.5486-.2089-.7575,0s-.2089.5486,0,.7575l1.2279,1.2279h-2.9925c-.2957,0-.5357.24-.5357.5357s.24.5357.5357.5357h2.9925l-1.2279,1.2279c-.2089.2089-.2089.5486,0,.7575s.5486.2089.7575,0l2.1429-2.1429v.0011Z"/>
</svg>