<svg width="16" height="16" xmlns="http://www.w3.org/2000/svg" fill="context-fill" fill-opacity="context-fill-opacity">
  <path d="M.8388,5.0822c-.3698-1.3817.4495-2.8006,1.8312-3.1714L6.672.8388c1.3817-.3698,2.8006.4495,3.1714,1.8312l.5955,2.2227h-1.072l-.5241-1.9555c-.2216-.8286-1.0741-1.3206-1.9026-1.0989l-4.0021,1.072c-.8286.2216-1.3206,1.0741-1.0989,1.9026l1.072,4.0021c.2216.8286,1.0741,1.3206,1.9026,1.0989l.0787-.0207v1.0647c-1.3195.2506-2.6287-.5562-2.9819-1.8747L.8388,5.0811v.001ZM7.9998,5.9284c-1.1445,0-2.0715.927-2.0715,2.0715v5.1787c0,1.1445.927,2.0715,2.0715,2.0715h5.1787c1.1445,0,2.0715-.927,2.0715-2.0715v-5.1787c0-1.1445-.927-2.0715-2.0715-2.0715h-5.1787ZM6.9641,7.9998c0-.5717.464-1.0357,1.0357-1.0357h5.1787c.5717,0,1.0357.464,1.0357,1.0357v5.1787c0,.5717-.464,1.0357-1.0357,1.0357h-5.1787c-.5717,0-1.0357-.464-1.0357-1.0357v-5.1787ZM13.0263,11.0511l.0031-.0031c.0487-.0487.0849-.1056.1098-.1657s.0394-.1264.0394-.1947v-.0062c0-.0694-.0145-.1346-.0394-.1947-.0249-.0611-.0632-.1181-.1129-.1678l-2.0715-2.0715c-.202-.202-.5303-.202-.7323,0s-.202.5303,0,.7323l1.187,1.187h-2.8928c-.2859,0-.5179.232-.5179.5179s.232.5179.5179.5179h2.8928l-1.187,1.187c-.202.202-.202.5303,0,.7323s.5303.202.7323,0l2.0715-2.0715v.001Z"/>
</svg>