<?xml version="1.0" encoding="UTF-8"?>
<svg id="_图层_1" data-name="图层_1" xmlns="http://www.w3.org/2000/svg" version="1.1" viewBox="0 0 16 16">
  <!-- Generator: Adobe Illustrator 29.7.1, SVG Export Plug-In . SVG Version: 2.1.1 Build 8)  -->
  <defs>
    <style>
      .st0 {
        fill: #212121;
      }
    </style>
  </defs>
  <path class="st0" d="M9.7657,10.632l4.7435,4.7435c.2267.2266.5942.2266.8209,0,.2266-.2267.2266-.5942,0-.8209L1.4.6246c-.2267-.2267-.5942-.2267-.8208,0-.2267.2267-.2267.5942,0,.8208l4.7429,4.7429-.0924.1735-3.2628,1.0876c-.1908.0636-.3351.2215-.3813.4173-.0462.1958.0122.4015.1545.5438l2.4917,2.4917-3.0721,3.0722-.17.9908.9908-.1699,3.0721-3.0722,2.4917,2.4917c.1422.1422.348.2006.5438.1544.1958-.0462.3537-.1905.4173-.3813l1.0878-3.2633.1727-.0924ZM8.9477,9.7182l-.0662.0354c-.13.0696-.2284.1863-.275.3262l-.8587,2.576-4.4491-4.4491,2.576-.8586c.1402-.0468.2572-.1455.3267-.276l.0348-.0653,2.7115,2.7115ZM13.4436,7.3114l-2.3702,1.2688.8525.8524,2.0623-1.104c1.0225-.5474,1.2278-1.9259.4092-2.7475L10.3757,1.5451c-.8214-.8244-2.2061-.6194-2.7534.4076l-1.1043,2.0721.8529.8529,1.2696-2.3824c.1824-.3423.644-.4107.9178-.1359l4.0217,4.0361c.2729.2739.2043.7334-.1364.9158Z"/>
</svg>