<svg width="16" height="16" xmlns="http://www.w3.org/2000/svg" fill="context-fill" fill-opacity="context-fill-opacity">
    <path id="svg_1" d="M2.75,1.875c-.962,0-1.75.788-1.75,1.75v8.75c0,.962.788,1.75,1.75,1.75h10.5c.962,0,1.75-.788,1.75-1.75V3.625c0-.962-.788-1.75-1.75-1.75H2.75ZM2.75,2.75h6.125v10.5H2.75c-.488,0-.875-.387-.875-.875V3.625c0-.488.387-.875.875-.875h0ZM9.75,2.75h3.5c.488,0,.875.387.875.875v8.75c0,.488-.387.875-.875.875h-3.5V2.75h0ZM11.063,4.5c-.242,0-.438.196-.438.438h0c0,.242.196.438.438.438h1.75c.242,0,.438-.196.438-.438h0c0-.242-.196-.438-.438-.438h-1.75ZM11.063,7.125c-.242,0-.438.196-.438.438h0c0,.242.196.438.438.438h1.75c.242,0,.438-.196.438-.438h0c0-.242-.196-.438-.438-.438h-1.75ZM11.063,9.75c-.242,0-.438.196-.438.438s.196.438.438.438h1.75c.242,0,.438-.196.438-.438s-.196-.438-.438-.438h-1.75Z"/>
</svg>